<svg xmlns="http://www.w3.org/2000/svg" version="1.1" xmlns:xlink="http://www.w3.org/1999/xlink" xmlns:svgjs="http://svgjs.dev/svgjs" width="1000" height="623" viewBox="0 0 1000 623"><g transform="matrix(1,0,0,1,-0.6060606060606233,0.2522267206477409)"><svg viewBox="0 0 396 247" data-background-color="#111111" preserveAspectRatio="xMidYMid meet" height="623" width="1000" xmlns="http://www.w3.org/2000/svg" xmlns:xlink="http://www.w3.org/1999/xlink"><g id="tight-bounds" transform="matrix(1,0,0,1,0.2400000000000091,-0.09999999999999432)"><svg viewBox="0 0 395.52 247.2" height="247.2" width="395.52"><g><svg></svg></g><g><svg viewBox="0 0 395.52 247.2" height="247.2" width="395.52"><g><path d="M55.039 247.2l26.403-45.732 1.63 0-25.543 44.243h280.462l-25.543-44.243 1.63 0 26.403 45.732zM197.76 0l26.403 45.732-1.63 0-24.773-42.909-24.773 42.909-1.63 0z" fill="#ffa458" fill-rule="nonzero" stroke="none" stroke-width="1" stroke-linecap="butt" stroke-linejoin="miter" stroke-miterlimit="10" stroke-dasharray="" stroke-dashoffset="0" font-family="none" font-weight="none" font-size="none" text-anchor="none" style="mix-blend-mode: normal" data-fill-palette-color="tertiary"></path></g><g transform="matrix(1,0,0,1,19.91421655369291,67.97999999999999)"><svg viewBox="0 0 355.69156689261416 111.24" height="111.24" width="355.69156689261416"><g><svg viewBox="0 0 395.5199999999999 123.69605831358716" height="111.24" width="355.69156689261416"><g transform="matrix(1,0,0,1,0,74.4015648468917)"><svg viewBox="0 0 395.5199999999999 49.29449346669546" height="49.29449346669546" width="395.5199999999999"><g id="textblocktransform"><svg viewBox="0 0 395.5199999999999 49.29449346669546" height="49.29449346669546" width="395.5199999999999" id="textblock"><g><svg viewBox="0 0 395.5199999999999 26.587094308267545" height="26.587094308267545" width="395.5199999999999"><g transform="matrix(1,0,0,1,0,0)"><svg width="395.5199999999999" viewBox="0.75 -39.95 601.69 40.45" height="26.587094308267545" data-palette-color="#ffa458"><path d="M17.35-34.65L17.35-2Q17.35 0.4 14.35 0.4L14.35 0.4Q11.4 0.4 11.4-2L11.4-2 11.4-34.65 2.65-34.65Q0.85-34.65 0.75-37.2L0.75-37.2Q0.75-39.7 2.65-39.7L2.65-39.7 26.1-39.7Q28-39.7 27.9-37.2L27.9-37.2Q27.9-34.65 26.1-34.65L26.1-34.65 17.35-34.65ZM40.35-39.7L51.25-39.7Q52.55-39.7 53.95-39.15 55.35-38.6 56.65-37.75L56.65-37.75 56.6-37.75Q57.9-36.8 58.6-35.27 59.3-33.75 59.3-31.75L59.3-31.75 59.3-8Q59.3-3.95 56.6-1.95L56.6-1.95Q55.3-1 53.92-0.48 52.55 0.05 51.25 0.05L51.25 0.05 40.35 0.05Q39.05 0.05 37.67-0.48 36.3-1 35-1.95L35-1.95Q33.7-2.95 33-4.42 32.3-5.9 32.3-8L32.3-8 32.3-31.75Q32.3-33.75 33-35.27 33.7-36.8 35-37.75L35-37.75 34.95-37.75Q36.25-38.6 37.65-39.15 39.05-39.7 40.35-39.7L40.35-39.7ZM41.6-5L50-5Q51.85-5 52.6-6.05 53.35-7.1 53.35-8.4L53.35-8.4 53.35-31.3Q53.35-32.55 52.6-33.6 51.85-34.65 50-34.65L50-34.65 41.6-34.65Q39.75-34.65 39-33.6 38.25-32.55 38.25-31.3L38.25-31.3 38.25-8.4Q38.25-7.1 39-6.05 39.75-5 41.6-5L41.6-5ZM112.49-39.95L112.49-39.95Q114.09-39.95 115.99-39.2L115.99-39.2Q117.74-38.5 117.74-36.55L117.74-36.55 117.74-2.1Q117.74 0.3 114.79 0.3L114.79 0.3Q111.84 0.3 111.84-2.1L111.84-2.1 111.84-27.8 110.39-27.95 108.39-21.45 102.39-1.45Q101.84 0.3 99.69 0.25L99.69 0.25Q98.74 0.2 98.04-0.25 97.34-0.7 97.09-1.55L97.09-1.55 93.49-13.2Q92.39-16.65 91.29-20.23 90.19-23.8 88.89-28.15L88.89-28.15 87.44-27.95 87.44-2.1Q87.44 0.3 84.49 0.3L84.49 0.3Q81.54 0.3 81.54-2.1L81.54-2.1 81.54-36.55Q81.54-38.45 83.29-39.2L83.29-39.2Q85.14-39.95 86.84-39.9L86.84-39.9Q87.59-39.9 88.39-39.7 89.19-39.5 89.89-39.13 90.59-38.75 91.14-38.18 91.69-37.6 91.99-36.85L91.99-36.85 99.84-10.1Q100.69-13.05 101.64-16.5 102.59-19.95 103.59-23.5 104.59-27.05 105.57-30.53 106.54-34 107.39-37L107.39-37Q107.69-37.7 108.24-38.25 108.79-38.8 109.49-39.18 110.19-39.55 110.97-39.75 111.74-39.95 112.49-39.95ZM130.94-37.55L130.94-2.1Q130.94 0.3 127.94 0.3L127.94 0.3Q124.99 0.3 124.99-2.1L124.99-2.1 124.99-37.55Q124.99-39.95 127.94-39.95L127.94-39.95Q130.94-39.95 130.94-37.55L130.94-37.55ZM165.89-11.3L165.89-8Q165.89-3.95 163.19-1.95L163.19-1.95Q161.89-1 160.51-0.48 159.14 0.05 157.84 0.05L157.84 0.05 146.94 0.05Q145.64 0.05 144.26-0.48 142.89-1 141.59-1.95L141.59-1.95Q140.29-2.95 139.59-4.42 138.89-5.9 138.89-8L138.89-8 138.89-31.75Q138.89-33.75 139.59-35.27 140.29-36.8 141.59-37.75L141.59-37.75 141.54-37.75Q142.84-38.6 144.24-39.15 145.64-39.7 146.94-39.7L146.94-39.7 157.84-39.7Q159.14-39.7 160.54-39.15 161.94-38.6 163.24-37.75L163.24-37.75 163.19-37.75Q164.49-36.8 165.19-35.27 165.89-33.75 165.89-31.75L165.89-31.75 165.89-28.3Q165.89-25.9 162.89-25.9L162.89-25.9Q159.94-25.9 159.94-28.3L159.94-28.3 159.94-31.3Q159.94-32.55 159.19-33.6 158.44-34.65 156.59-34.65L156.59-34.65 148.19-34.65Q146.34-34.65 145.59-33.6 144.84-32.55 144.84-31.3L144.84-31.3 144.84-8.4Q144.84-7.1 145.59-6.05 146.34-5 148.19-5L148.19-5 156.59-5Q158.44-5 159.19-6.05 159.94-7.1 159.94-8.4L159.94-8.4 159.94-11.3Q159.94-13.65 162.89-13.65L162.89-13.65Q165.89-13.65 165.89-11.3L165.89-11.3ZM179.28-37.55L179.28-2.1Q179.28 0.3 176.28 0.3L176.28 0.3Q173.33 0.3 173.33-2.1L173.33-2.1 173.33-37.55Q173.33-39.95 176.28-39.95L176.28-39.95Q179.28-39.95 179.28-37.55L179.28-37.55ZM210.28-39.7L221.18-39.7Q222.48-39.7 223.88-39.15 225.28-38.6 226.58-37.75L226.58-37.75 226.53-37.75Q227.83-36.8 228.53-35.27 229.23-33.75 229.23-31.75L229.23-31.75 229.23-8Q229.23-3.95 226.53-1.95L226.53-1.95Q225.23-1 223.86-0.48 222.48 0.05 221.18 0.05L221.18 0.05 210.28 0.05Q208.98 0.05 207.6-0.48 206.23-1 204.93-1.95L204.93-1.95Q203.63-2.95 202.93-4.42 202.23-5.9 202.23-8L202.23-8 202.23-31.75Q202.23-33.75 202.93-35.27 203.63-36.8 204.93-37.75L204.93-37.75 204.88-37.75Q206.18-38.6 207.58-39.15 208.98-39.7 210.28-39.7L210.28-39.7ZM211.53-5L219.93-5Q221.78-5 222.53-6.05 223.28-7.1 223.28-8.4L223.28-8.4 223.28-31.3Q223.28-32.55 222.53-33.6 221.78-34.65 219.93-34.65L219.93-34.65 211.53-34.65Q209.68-34.65 208.93-33.6 208.18-32.55 208.18-31.3L208.18-31.3 208.18-8.4Q208.18-7.1 208.93-6.05 209.68-5 211.53-5L211.53-5ZM260.38-0.6L250.93-16.45 247.08-16.45Q246.23-16.45 245.75-17.13 245.28-17.8 245.28-18.95L245.28-18.95Q245.28-21.5 247.38-21.5L247.38-21.5 253.23-21.5Q255.08-21.5 255.83-22.55 256.58-23.6 256.58-24.85L256.58-24.85 256.58-31.3Q256.58-32.55 255.83-33.6 255.08-34.65 253.23-34.65L253.23-34.65 242.68-34.65 242.68-2.05Q242.68 0.35 239.73 0.35L239.73 0.35Q236.78 0.35 236.78-2.05L236.78-2.05 236.78-36.7Q236.78-38.5 237.7-39.1 238.63-39.7 239.93-39.7L239.93-39.7 254.48-39.7Q255.78-39.7 257.18-39.15 258.58-38.6 259.88-37.75L259.88-37.75 259.83-37.75Q261.13-36.8 261.83-35.27 262.53-33.75 262.53-31.75L262.53-31.75 262.53-24.45Q262.53-20.4 259.83-18.4L259.83-18.4Q259.28-18 258.65-17.65 258.03-17.3 257.38-16.95L257.38-16.95 265.38-3.75Q265.53-3.5 265.68-3.1 265.83-2.7 265.83-2.45L265.83-2.45Q265.83-1.25 264.13-0.15L264.13-0.15 264.13-0.2Q262.98 0.5 262.18 0.5L262.18 0.5Q261.03 0.5 260.33-0.65L260.33-0.65 260.38-0.6ZM307.62-10.5L307.62-37.55Q307.62-39.95 310.57-39.95L310.57-39.95Q313.52-39.95 313.52-37.55L313.52-37.55 313.52-3.05Q313.52-1.3 311.67-0.5L311.67-0.5 311.72-0.5Q310.92-0.15 310.02 0.05 309.12 0.25 308.27 0.25L308.27 0.25Q307.62 0.25 306.92 0.13 306.22 0 305.6-0.28 304.97-0.55 304.45-1.03 303.92-1.5 303.62-2.2L303.62-2.2 292.77-29.25 291.42-29.1 291.42-2.1Q291.42 0.3 288.42 0.3L288.42 0.3Q285.47 0.3 285.47-2.1L285.47-2.1 285.47-36.55Q285.47-38.6 287.27-39.3L287.27-39.3Q288.92-39.95 290.77-39.95L290.77-39.95Q292.07-39.95 293.4-39.43 294.72-38.9 295.42-37.45L295.42-37.45 306.22-10.35 307.62-10.5ZM328.97-39.7L339.87-39.7Q341.17-39.7 342.57-39.15 343.97-38.6 345.27-37.75L345.27-37.75 345.22-37.75Q346.52-36.8 347.22-35.27 347.92-33.75 347.92-31.75L347.92-31.75 347.92-8Q347.92-3.95 345.22-1.95L345.22-1.95Q343.92-1 342.55-0.48 341.17 0.05 339.87 0.05L339.87 0.05 328.97 0.05Q327.67 0.05 326.3-0.48 324.92-1 323.62-1.95L323.62-1.95Q322.32-2.95 321.62-4.42 320.92-5.9 320.92-8L320.92-8 320.92-31.75Q320.92-33.75 321.62-35.27 322.32-36.8 323.62-37.75L323.62-37.75 323.57-37.75Q324.87-38.6 326.27-39.15 327.67-39.7 328.97-39.7L328.97-39.7ZM330.22-5L338.62-5Q340.47-5 341.22-6.05 341.97-7.1 341.97-8.4L341.97-8.4 341.97-31.3Q341.97-32.55 341.22-33.6 340.47-34.65 338.62-34.65L338.62-34.65 330.22-34.65Q328.37-34.65 327.62-33.6 326.87-32.55 326.87-31.3L326.87-31.3 326.87-8.4Q326.87-7.1 327.62-6.05 328.37-5 330.22-5L330.22-5ZM368.82-34.65L368.82-2Q368.82 0.4 365.82 0.4L365.82 0.4Q362.87 0.4 362.87-2L362.87-2 362.87-34.65 354.12-34.65Q352.32-34.65 352.22-37.2L352.22-37.2Q352.22-39.7 354.12-39.7L354.12-39.7 377.57-39.7Q379.47-39.7 379.37-37.2L379.37-37.2Q379.37-34.65 377.57-34.65L377.57-34.65 368.82-34.65ZM412.16-34.65L412.16-2Q412.16 0.4 409.16 0.4L409.16 0.4Q406.21 0.4 406.21-2L406.21-2 406.21-34.65 397.46-34.65Q395.66-34.65 395.56-37.2L395.56-37.2Q395.56-39.7 397.46-39.7L397.46-39.7 420.91-39.7Q422.81-39.7 422.71-37.2L422.71-37.2Q422.71-34.65 420.91-34.65L420.91-34.65 412.16-34.65ZM435.16-39.7L446.06-39.7Q447.36-39.7 448.76-39.15 450.16-38.6 451.46-37.75L451.46-37.75 451.41-37.75Q452.71-36.8 453.41-35.27 454.11-33.75 454.11-31.75L454.11-31.75 454.11-8Q454.11-3.95 451.41-1.95L451.41-1.95Q450.11-1 448.74-0.48 447.36 0.05 446.06 0.05L446.06 0.05 435.16 0.05Q433.86 0.05 432.49-0.48 431.11-1 429.81-1.95L429.81-1.95Q428.51-2.95 427.81-4.42 427.11-5.9 427.11-8L427.11-8 427.11-31.75Q427.11-33.75 427.81-35.27 428.51-36.8 429.81-37.75L429.81-37.75 429.76-37.75Q431.06-38.6 432.46-39.15 433.86-39.7 435.16-39.7L435.16-39.7ZM436.41-5L444.81-5Q446.66-5 447.41-6.05 448.16-7.1 448.16-8.4L448.16-8.4 448.16-31.3Q448.16-32.55 447.41-33.6 446.66-34.65 444.81-34.65L444.81-34.65 436.41-34.65Q434.56-34.65 433.81-33.6 433.06-32.55 433.06-31.3L433.06-31.3 433.06-8.4Q433.06-7.1 433.81-6.05 434.56-5 436.41-5L436.41-5ZM507.31-39.95L507.31-39.95Q508.91-39.95 510.81-39.2L510.81-39.2Q512.56-38.5 512.56-36.55L512.56-36.55 512.56-2.1Q512.56 0.3 509.61 0.3L509.61 0.3Q506.66 0.3 506.66-2.1L506.66-2.1 506.66-27.8 505.21-27.95 503.21-21.45 497.21-1.45Q496.66 0.3 494.51 0.25L494.51 0.25Q493.56 0.2 492.86-0.25 492.16-0.7 491.91-1.55L491.91-1.55 488.31-13.2Q487.21-16.65 486.11-20.23 485.01-23.8 483.71-28.15L483.71-28.15 482.26-27.95 482.26-2.1Q482.26 0.3 479.31 0.3L479.31 0.3Q476.36 0.3 476.36-2.1L476.36-2.1 476.36-36.55Q476.36-38.45 478.11-39.2L478.11-39.2Q479.96-39.95 481.66-39.9L481.66-39.9Q482.41-39.9 483.21-39.7 484.01-39.5 484.71-39.13 485.41-38.75 485.96-38.18 486.51-37.6 486.81-36.85L486.81-36.85 494.66-10.1Q495.51-13.05 496.46-16.5 497.41-19.95 498.41-23.5 499.41-27.05 500.38-30.53 501.36-34 502.21-37L502.21-37Q502.51-37.7 503.06-38.25 503.61-38.8 504.31-39.18 505.01-39.55 505.78-39.75 506.56-39.95 507.31-39.95ZM525.75-37.55L525.75-2.1Q525.75 0.3 522.75 0.3L522.75 0.3Q519.8 0.3 519.8-2.1L519.8-2.1 519.8-37.55Q519.8-39.95 522.75-39.95L522.75-39.95Q525.75-39.95 525.75-37.55L525.75-37.55ZM560.7-11.3L560.7-8Q560.7-3.95 558-1.95L558-1.95Q556.7-1 555.33-0.48 553.95 0.05 552.65 0.05L552.65 0.05 541.75 0.05Q540.45 0.05 539.08-0.48 537.7-1 536.4-1.95L536.4-1.95Q535.1-2.95 534.4-4.42 533.7-5.9 533.7-8L533.7-8 533.7-31.75Q533.7-33.75 534.4-35.27 535.1-36.8 536.4-37.75L536.4-37.75 536.35-37.75Q537.65-38.6 539.05-39.15 540.45-39.7 541.75-39.7L541.75-39.7 552.65-39.7Q553.95-39.7 555.35-39.15 556.75-38.6 558.05-37.75L558.05-37.75 558-37.75Q559.3-36.8 560-35.27 560.7-33.75 560.7-31.75L560.7-31.75 560.7-28.3Q560.7-25.9 557.7-25.9L557.7-25.9Q554.75-25.9 554.75-28.3L554.75-28.3 554.75-31.3Q554.75-32.55 554-33.6 553.25-34.65 551.4-34.65L551.4-34.65 543-34.65Q541.15-34.65 540.4-33.6 539.65-32.55 539.65-31.3L539.65-31.3 539.65-8.4Q539.65-7.1 540.4-6.05 541.15-5 543-5L543-5 551.4-5Q553.25-5 554-6.05 554.75-7.1 554.75-8.4L554.75-8.4 554.75-11.3Q554.75-13.65 557.7-13.65L557.7-13.65Q560.7-13.65 560.7-11.3L560.7-11.3ZM574.1-37.55L574.1-2.1Q574.1 0.3 571.1 0.3L571.1 0.3Q568.15 0.3 568.15-2.1L568.15-2.1 568.15-37.55Q568.15-39.95 571.1-39.95L571.1-39.95Q574.1-39.95 574.1-37.55L574.1-37.55ZM588.64-39.7L594.44-39.7Q595.64-39.7 597.07-39.15 598.49-38.6 599.79-37.75L599.79-37.75 599.74-37.75Q601.04-36.8 601.74-35.27 602.44-33.75 602.44-31.75L602.44-31.75 602.44-29.35Q602.44-24.7 597.94-21.8L597.94-21.8Q593.44-18.95 593.44-16L593.44-16 593.44-12.15Q593.44-10 590.44-9.9L590.44-9.9Q587.54-9.9 587.54-12.15L587.54-12.15 587.54-15.9Q587.54-18.75 588.72-20.75 589.89-22.75 591.99-23.8L591.99-23.8Q594.19-24.8 595.37-26.33 596.54-27.85 596.54-29.75L596.54-29.75 596.54-31.3Q596.54-32.55 595.77-33.6 594.99-34.65 593.14-34.65L593.14-34.65 589.89-34.65Q588.04-34.65 587.29-33.6 586.54-32.55 586.54-31.3L586.54-31.3 586.54-29.3Q586.54-26.95 583.54-26.95L583.54-26.95Q580.64-26.95 580.64-29.3L580.64-29.3 580.64-31.75Q580.64-35.8 583.29-37.75L583.29-37.75 583.24-37.75Q584.54-38.6 585.94-39.15 587.34-39.7 588.64-39.7L588.64-39.7ZM594.54-4.05L594.54-4.05Q594.54-2.3 593.37-1.13 592.19 0.05 590.49 0.05L590.49 0.05Q588.79 0.05 587.62-1.13 586.44-2.3 586.44-4.05L586.44-4.05Q586.44-5.75 587.62-6.9 588.79-8.05 590.49-8.05L590.49-8.05Q592.19-8.05 593.37-6.9 594.54-5.75 594.54-4.05Z" opacity="1" transform="matrix(1,0,0,1,0,0)" fill="#ffa458" class="wordmark-text-0" data-fill-palette-color="primary" id="text-0"></path></svg></g></svg></g><g transform="matrix(1,0,0,1,0,32.863669184186115)"><svg viewBox="0 0 395.5199999999999 16.43082428250934" height="16.43082428250934" width="395.5199999999999"><g transform="matrix(1,0,0,1,0,0)"><svg width="395.5199999999999" viewBox="5.55 -37.65 1153.04 47.9" height="16.43082428250934" data-palette-color="#ff4136"><path d="M12.35-34.25Q19.45-34.25 23.88-30.65 28.3-27.05 28.3-17.4L28.3-17.4Q28.3-7.75 23.83-3.88 19.35 0 12.9 0L12.9 0 5.55 0 5.55-34.25 12.35-34.25ZM12.75-31.75L8.55-31.75 8.55-2.5 13.1-2.5Q25.15-2.5 25.15-17.4L25.15-17.4Q25.15-23.3 23.4-26.45 21.65-29.6 18.98-30.68 16.3-31.75 12.75-31.75L12.75-31.75ZM54.83-26.7Q60.03-26.7 62.96-23.13 65.88-19.55 65.88-13.15L65.88-13.15Q65.88-6.8 62.91-3.13 59.93 0.55 54.78 0.55L54.78 0.55Q49.58 0.55 46.66-3.08 43.73-6.7 43.73-13.05L43.73-13.05Q43.73-17.2 45.08-20.3 46.43-23.4 48.93-25.05 51.43-26.7 54.83-26.7L54.83-26.7ZM54.83-24.25Q51.03-24.25 48.93-21.4 46.83-18.55 46.83-13.05L46.83-13.05Q46.83-7.6 48.91-4.75 50.98-1.9 54.78-1.9L54.78-1.9Q58.58-1.9 60.71-4.75 62.83-7.6 62.83-13.15L62.83-13.15Q62.83-18.6 60.76-21.43 58.68-24.25 54.83-24.25L54.83-24.25ZM94.86-26.7Q98.41-26.7 100.29-24.6 102.16-22.5 102.16-18.7L102.16-18.7 102.16 0 99.26 0 99.26-18.3Q99.26-21.45 98.01-22.9 96.76-24.35 94.31-24.35L94.31-24.35Q91.81-24.35 89.89-22.98 87.96-21.6 86.21-18.95L86.21-18.95 86.21 0 83.31 0 83.31-26.15 85.81-26.15 86.11-21.7Q87.71-24.05 89.91-25.38 92.11-26.7 94.86-26.7L94.86-26.7ZM122.35-21.7L120.15-21.7 119.7-34.25 122.8-34.25 122.35-21.7ZM151.33-3.1L152.48-1.1Q149.98 0.55 146.98 0.55L146.98 0.55Q143.98 0.55 142.28-1.23 140.58-3 140.58-6.35L140.58-6.35 140.58-23.8 136.18-23.8 136.18-26.15 140.58-26.15 140.58-32.4 143.48-32.75 143.48-26.15 150.23-26.15 149.88-23.8 143.48-23.8 143.48-6.5Q143.48-4.2 144.43-3.08 145.38-1.95 147.33-1.95L147.33-1.95Q149.33-1.95 151.33-3.1L151.33-3.1ZM193.79 0.55Q191.64 0.55 190.42-0.7 189.19-1.95 189.19-4.4L189.19-4.4 189.19-36.8 192.09-37.15 192.09-4.5Q192.09-1.95 194.19-1.95L194.19-1.95Q195.24-1.95 195.99-2.3L195.99-2.3 196.79-0.15Q195.39 0.55 193.79 0.55L193.79 0.55ZM231.13-14.05Q231.13-12.95 231.03-11.95L231.03-11.95 213.58-11.95Q213.83-6.85 216-4.38 218.18-1.9 221.73-1.9L221.73-1.9Q223.78-1.9 225.35-2.53 226.93-3.15 228.78-4.5L228.78-4.5 230.13-2.65Q228.18-1.05 226.13-0.25 224.08 0.55 221.58 0.55L221.58 0.55Q216.38 0.55 213.43-3 210.48-6.55 210.48-12.85L210.48-12.85Q210.48-17 211.75-20.13 213.03-23.25 215.4-24.98 217.78-26.7 220.93-26.7L220.93-26.7Q225.93-26.7 228.53-23.33 231.13-19.95 231.13-14.05L231.13-14.05ZM228.28-14.2L228.28-14.95Q228.28-19.35 226.45-21.83 224.63-24.3 221.03-24.3L221.03-24.3Q217.78-24.3 215.78-21.8 213.78-19.3 213.58-14.2L213.58-14.2 228.28-14.2ZM259.06-3.1L260.21-1.1Q257.71 0.55 254.71 0.55L254.71 0.55Q251.71 0.55 250.01-1.23 248.31-3 248.31-6.35L248.31-6.35 248.31-23.8 243.91-23.8 243.91-26.15 248.31-26.15 248.31-32.4 251.21-32.75 251.21-26.15 257.96-26.15 257.61-23.8 251.21-23.8 251.21-6.5Q251.21-4.2 252.16-3.08 253.11-1.95 255.06-1.95L255.06-1.95Q257.06-1.95 259.06-3.1L259.06-3.1ZM307.92-3.1L309.07-1.1Q306.57 0.55 303.57 0.55L303.57 0.55Q300.57 0.55 298.87-1.23 297.17-3 297.17-6.35L297.17-6.35 297.17-23.8 292.77-23.8 292.77-26.15 297.17-26.15 297.17-32.4 300.07-32.75 300.07-26.15 306.82-26.15 306.47-23.8 300.07-23.8 300.07-6.5Q300.07-4.2 301.02-3.08 301.97-1.95 303.92-1.95L303.92-1.95Q305.92-1.95 307.92-3.1L307.92-3.1ZM334.7-26.7Q338.2-26.7 340.1-24.58 342-22.45 342-18.7L342-18.7 342 0 339.1 0 339.1-18.3Q339.1-24.35 334.15-24.35L334.15-24.35Q331.65-24.35 329.73-22.98 327.8-21.6 326.05-18.95L326.05-18.95 326.05 0 323.15 0 323.15-36.8 326.05-37.15 326.05-21.8Q329.55-26.7 334.7-26.7L334.7-26.7ZM379.84-14.05Q379.84-12.95 379.74-11.95L379.74-11.95 362.29-11.95Q362.54-6.85 364.71-4.38 366.89-1.9 370.44-1.9L370.44-1.9Q372.49-1.9 374.06-2.53 375.64-3.15 377.49-4.5L377.49-4.5 378.84-2.65Q376.89-1.05 374.84-0.25 372.79 0.55 370.29 0.55L370.29 0.55Q365.09 0.55 362.14-3 359.19-6.55 359.19-12.85L359.19-12.85Q359.19-17 360.46-20.13 361.74-23.25 364.11-24.98 366.49-26.7 369.64-26.7L369.64-26.7Q374.64-26.7 377.24-23.33 379.84-19.95 379.84-14.05L379.84-14.05ZM376.99-14.2L376.99-14.95Q376.99-19.35 375.16-21.83 373.34-24.3 369.74-24.3L369.74-24.3Q366.49-24.3 364.49-21.8 362.49-19.3 362.29-14.2L362.29-14.2 376.99-14.2ZM445.4-26.15L448.25-26.15 441.85 0 437.95 0 432.15-23.45 426.25 0 422.4 0 415.85-26.15 418.85-26.15 424.45-2.25 430.55-26.15 433.85-26.15 439.85-2.2 445.4-26.15ZM482.28-14.05Q482.28-12.95 482.18-11.95L482.18-11.95 464.73-11.95Q464.98-6.85 467.16-4.38 469.33-1.9 472.88-1.9L472.88-1.9Q474.93-1.9 476.51-2.53 478.08-3.15 479.93-4.5L479.93-4.5 481.28-2.65Q479.33-1.05 477.28-0.25 475.23 0.55 472.73 0.55L472.73 0.55Q467.53 0.55 464.58-3 461.63-6.55 461.63-12.85L461.63-12.85Q461.63-17 462.91-20.13 464.18-23.25 466.56-24.98 468.93-26.7 472.08-26.7L472.08-26.7Q477.08-26.7 479.68-23.33 482.28-19.95 482.28-14.05L482.28-14.05ZM479.43-14.2L479.43-14.95Q479.43-19.35 477.61-21.83 475.78-24.3 472.18-24.3L472.18-24.3Q468.93-24.3 466.93-21.8 464.93-19.3 464.73-14.2L464.73-14.2 479.43-14.2ZM515.71-5.8Q515.71-3.75 516.24-2.85 516.76-1.95 517.91-1.5L517.91-1.5 517.26 0.55Q515.46 0.2 514.49-0.8 513.51-1.8 513.21-3.85L513.21-3.85Q510.51 0.55 505.06 0.55L505.06 0.55Q501.31 0.55 499.14-1.58 496.96-3.7 496.96-7.25L496.96-7.25Q496.96-11.3 499.84-13.5 502.71-15.7 507.81-15.7L507.81-15.7 512.81-15.7 512.81-18.25Q512.81-21.4 511.41-22.83 510.01-24.25 506.76-24.25L506.76-24.25Q503.76-24.25 499.66-22.75L499.66-22.75 498.91-24.95Q503.31-26.7 507.16-26.7L507.16-26.7Q515.71-26.7 515.71-18.4L515.71-18.4 515.71-5.8ZM505.56-1.8Q510.26-1.8 512.81-6.4L512.81-6.4 512.81-13.6 508.26-13.6Q504.26-13.6 502.16-12.05 500.06-10.5 500.06-7.4L500.06-7.4Q500.06-4.7 501.51-3.25 502.96-1.8 505.56-1.8L505.56-1.8ZM545.95-3.1L547.1-1.1Q544.6 0.55 541.6 0.55L541.6 0.55Q538.6 0.55 536.9-1.23 535.2-3 535.2-6.35L535.2-6.35 535.2-23.8 530.8-23.8 530.8-26.15 535.2-26.15 535.2-32.4 538.1-32.75 538.1-26.15 544.85-26.15 544.5-23.8 538.1-23.8 538.1-6.5Q538.1-4.2 539.05-3.08 540-1.95 541.95-1.95L541.95-1.95Q543.95-1.95 545.95-3.1L545.95-3.1ZM572.73-26.7Q576.23-26.7 578.13-24.58 580.03-22.45 580.03-18.7L580.03-18.7 580.03 0 577.13 0 577.13-18.3Q577.13-24.35 572.18-24.35L572.18-24.35Q569.68-24.35 567.75-22.98 565.83-21.6 564.08-18.95L564.08-18.95 564.08 0 561.18 0 561.18-36.8 564.08-37.15 564.08-21.8Q567.58-26.7 572.73-26.7L572.73-26.7ZM617.86-14.05Q617.86-12.95 617.76-11.95L617.76-11.95 600.31-11.95Q600.56-6.85 602.74-4.38 604.91-1.9 608.46-1.9L608.46-1.9Q610.51-1.9 612.09-2.53 613.66-3.15 615.51-4.5L615.51-4.5 616.86-2.65Q614.91-1.05 612.86-0.25 610.81 0.55 608.31 0.55L608.31 0.55Q603.11 0.55 600.16-3 597.21-6.55 597.21-12.85L597.21-12.85Q597.21-17 598.49-20.13 599.76-23.25 602.14-24.98 604.51-26.7 607.66-26.7L607.66-26.7Q612.66-26.7 615.26-23.33 617.86-19.95 617.86-14.05L617.86-14.05ZM615.01-14.2L615.01-14.95Q615.01-19.35 613.19-21.83 611.36-24.3 607.76-24.3L607.76-24.3Q604.51-24.3 602.51-21.8 600.51-19.3 600.31-14.2L600.31-14.2 615.01-14.2ZM645.19-26.7Q646.74-26.7 647.79-26.4L647.79-26.4 647.24-23.65Q646.14-23.95 644.94-23.95L644.94-23.95Q642.29-23.95 640.67-22.03 639.04-20.1 637.94-16L637.94-16 637.94 0 635.04 0 635.04-26.15 637.54-26.15 637.79-20.3Q638.84-23.55 640.67-25.13 642.49-26.7 645.19-26.7L645.19-26.7ZM695.66-26.7Q697.21-26.7 698.26-26.4L698.26-26.4 697.71-23.65Q696.61-23.95 695.41-23.95L695.41-23.95Q692.76-23.95 691.13-22.03 689.51-20.1 688.41-16L688.41-16 688.41 0 685.51 0 685.51-26.15 688.01-26.15 688.26-20.3Q689.31-23.55 691.13-25.13 692.96-26.7 695.66-26.7L695.66-26.7ZM731.44-26.15L731.44 0 728.94 0 728.79-4.65Q725.69 0.55 720.24 0.55L720.24 0.55Q716.69 0.55 714.77-1.53 712.84-3.6 712.84-7.45L712.84-7.45 712.84-26.15 715.74-26.15 715.74-7.75Q715.74-4.7 717.02-3.28 718.29-1.85 720.89-1.85L720.89-1.85Q725.44-1.85 728.54-7.2L728.54-7.2 728.54-26.15 731.44-26.15ZM750.97-26.15L753.87-26.15 753.87 0 750.97 0 750.97-26.15ZM752.37-37.65Q753.37-37.65 753.97-37.05 754.57-36.45 754.57-35.55L754.57-35.55Q754.57-34.65 753.97-34.05 753.37-33.45 752.37-33.45L752.37-33.45Q751.42-33.45 750.82-34.05 750.22-34.65 750.22-35.55L750.22-35.55Q750.22-36.45 750.82-37.05 751.42-37.65 752.37-37.65L752.37-37.65ZM784.95-26.7Q788.5-26.7 790.38-24.6 792.25-22.5 792.25-18.7L792.25-18.7 792.25 0 789.35 0 789.35-18.3Q789.35-21.45 788.1-22.9 786.85-24.35 784.4-24.35L784.4-24.35Q781.9-24.35 779.98-22.98 778.05-21.6 776.3-18.95L776.3-18.95 776.3 0 773.4 0 773.4-26.15 775.9-26.15 776.2-21.7Q777.8-24.05 780-25.38 782.2-26.7 784.95-26.7L784.95-26.7ZM830.09-28.4L830.99-25.6Q828.59-24.95 823.74-24.85L823.74-24.85Q828.19-22.75 828.19-17.75L828.19-17.75Q828.19-13.9 825.64-11.53 823.09-9.15 818.74-9.15L818.74-9.15Q816.79-9.15 815.34-9.65L815.34-9.65Q814.39-9.1 813.86-8.33 813.34-7.55 813.34-6.65L813.34-6.65Q813.34-3.95 817.49-3.95L817.49-3.95 821.74-3.95Q825.59-3.95 827.86-2.08 830.14-0.2 830.14 2.75L830.14 2.75Q830.14 6.35 827.29 8.3 824.44 10.25 818.79 10.25L818.79 10.25Q812.94 10.25 810.41 8.47 807.89 6.7 807.89 2.75L807.89 2.75 810.59 2.75Q810.64 4.65 811.39 5.75 812.14 6.85 813.89 7.35 815.64 7.85 818.79 7.85L818.79 7.85Q823.19 7.85 825.19 6.58 827.19 5.3 827.19 2.9L827.19 2.9Q827.19 0.8 825.64-0.33 824.09-1.45 821.29-1.45L821.29-1.45 817.04-1.45Q813.94-1.45 812.26-2.75 810.59-4.05 810.59-6.05L810.59-6.05Q810.59-7.35 811.34-8.5 812.09-9.65 813.44-10.5L813.44-10.5Q811.19-11.65 810.11-13.45 809.04-15.25 809.04-17.85L809.04-17.85Q809.04-21.8 811.69-24.25 814.34-26.7 818.64-26.7L818.64-26.7Q823.39-26.65 825.56-27.05 827.74-27.45 830.09-28.4L830.09-28.4ZM818.64-24.45Q815.39-24.45 813.71-22.65 812.04-20.85 812.04-17.85L812.04-17.85Q812.04-14.75 813.81-13 815.59-11.25 818.64-11.25L818.64-11.25Q821.84-11.25 823.54-12.98 825.24-14.7 825.24-17.8L825.24-17.8Q825.24-20.95 823.56-22.7 821.89-24.45 818.64-24.45L818.64-24.45ZM885.8-26.15L876.85 0.1Q875.8 3.15 874.55 5.1 873.3 7.05 871.3 8.33 869.3 9.6 866.15 10.2L866.15 10.2 865.85 7.95Q868.45 7.3 869.93 6.35 871.4 5.4 872.28 3.98 873.15 2.55 874.05 0L874.05 0 873.05 0 863.95-26.15 867.1-26.15 875-2.15 882.75-26.15 885.8-26.15ZM909.83-26.7Q915.03-26.7 917.96-23.13 920.88-19.55 920.88-13.15L920.88-13.15Q920.88-6.8 917.91-3.13 914.93 0.55 909.78 0.55L909.78 0.55Q904.58 0.55 901.66-3.08 898.73-6.7 898.73-13.05L898.73-13.05Q898.73-17.2 900.08-20.3 901.43-23.4 903.93-25.05 906.43-26.7 909.83-26.7L909.83-26.7ZM909.83-24.25Q906.03-24.25 903.93-21.4 901.83-18.55 901.83-13.05L901.83-13.05Q901.83-7.6 903.91-4.75 905.98-1.9 909.78-1.9L909.78-1.9Q913.58-1.9 915.71-4.75 917.83-7.6 917.83-13.15L917.83-13.15Q917.83-18.6 915.76-21.43 913.68-24.25 909.83-24.25L909.83-24.25ZM956.67-26.15L956.67 0 954.17 0 954.02-4.65Q950.92 0.55 945.47 0.55L945.47 0.55Q941.92 0.55 939.99-1.53 938.07-3.6 938.07-7.45L938.07-7.45 938.07-26.15 940.97-26.15 940.97-7.75Q940.97-4.7 942.24-3.28 943.52-1.85 946.12-1.85L946.12-1.85Q950.67-1.85 953.77-7.2L953.77-7.2 953.77-26.15 956.67-26.15ZM986.35-26.7Q987.9-26.7 988.95-26.4L988.95-26.4 988.4-23.65Q987.3-23.95 986.1-23.95L986.1-23.95Q983.45-23.95 981.82-22.03 980.2-20.1 979.1-16L979.1-16 979.1 0 976.2 0 976.2-26.15 978.7-26.15 978.95-20.3Q980-23.55 981.82-25.13 983.65-26.7 986.35-26.7L986.35-26.7ZM1052.16-26.7Q1055.31-26.7 1057.14-24.55 1058.96-22.4 1058.96-18.7L1058.96-18.7 1058.96 0 1056.06 0 1056.06-18.3Q1056.06-21.4 1054.89-22.88 1053.71-24.35 1051.61-24.35L1051.61-24.35Q1049.41-24.35 1047.66-22.95 1045.91-21.55 1044.26-18.95L1044.26-18.95 1044.26 0 1041.36 0 1041.36-18.3Q1041.36-21.4 1040.19-22.88 1039.01-24.35 1036.91-24.35L1036.91-24.35Q1034.66-24.35 1032.91-22.95 1031.16-21.55 1029.56-18.95L1029.56-18.95 1029.56 0 1026.66 0 1026.66-26.15 1029.16-26.15 1029.41-21.7Q1030.91-24.05 1032.96-25.38 1035.01-26.7 1037.46-26.7L1037.46-26.7Q1039.96-26.7 1041.66-25.33 1043.36-23.95 1043.96-21.5L1043.96-21.5Q1045.51-23.95 1047.59-25.33 1049.66-26.7 1052.16-26.7L1052.16-26.7ZM1078.24-26.15L1081.14-26.15 1081.14 0 1078.24 0 1078.24-26.15ZM1079.64-37.65Q1080.64-37.65 1081.24-37.05 1081.84-36.45 1081.84-35.55L1081.84-35.55Q1081.84-34.65 1081.24-34.05 1080.64-33.45 1079.64-33.45L1079.64-33.45Q1078.69-33.45 1078.09-34.05 1077.49-34.65 1077.49-35.55L1077.49-35.55Q1077.49-36.45 1078.09-37.05 1078.69-37.65 1079.64-37.65L1079.64-37.65ZM1109.63-26.7Q1111.88-26.7 1113.63-26.08 1115.38-25.45 1117.03-24.05L1117.03-24.05 1115.58-22.15Q1114.28-23.2 1112.9-23.7 1111.53-24.2 1109.78-24.2L1109.78-24.2Q1106.08-24.2 1103.88-21.33 1101.68-18.45 1101.68-12.95L1101.68-12.95Q1101.68-7.5 1103.85-4.75 1106.03-2 1109.73-2L1109.73-2Q1111.48-2 1112.9-2.55 1114.33-3.1 1115.78-4.2L1115.78-4.2 1117.18-2.25Q1113.88 0.55 1109.68 0.55L1109.68 0.55Q1106.33 0.55 1103.83-1.05 1101.33-2.65 1099.95-5.68 1098.58-8.7 1098.58-12.9L1098.58-12.9Q1098.58-17.05 1099.95-20.18 1101.33-23.3 1103.83-25 1106.33-26.7 1109.63-26.7L1109.63-26.7ZM1133.06-26.15L1135.96-26.15 1135.96 0 1133.06 0 1133.06-26.15ZM1134.46-37.65Q1135.46-37.65 1136.06-37.05 1136.66-36.45 1136.66-35.55L1136.66-35.55Q1136.66-34.65 1136.06-34.05 1135.46-33.45 1134.46-33.45L1134.46-33.45Q1133.51-33.45 1132.91-34.05 1132.31-34.65 1132.31-35.55L1132.31-35.55Q1132.31-36.45 1132.91-37.05 1133.51-37.65 1134.46-37.65L1134.46-37.65ZM1154.59-34.25L1157.69-34.25 1157.49-10.9 1154.84-10.9 1154.59-34.25ZM1156.19-4.2Q1157.24-4.2 1157.92-3.53 1158.59-2.85 1158.59-1.85L1158.59-1.85Q1158.59-0.85 1157.92-0.15 1157.24 0.55 1156.19 0.55L1156.19 0.55Q1155.19 0.55 1154.49-0.15 1153.79-0.85 1153.79-1.85L1153.79-1.85Q1153.79-2.85 1154.49-3.53 1155.19-4.2 1156.19-4.2L1156.19-4.2Z" opacity="1" transform="matrix(1,0,0,1,0,0)" fill="#ff4136" class="slogan-text-1" data-fill-palette-color="secondary" id="text-1"></path></svg></g></svg></g></svg></g></svg></g><g transform="matrix(1,0,0,1,158.86920653520167,0)"><svg viewBox="0 0 77.78158692959659 68.12498997097313" height="68.12498997097313" width="77.78158692959659"><g><svg xmlns="http://www.w3.org/2000/svg" xmlns:xlink="http://www.w3.org/1999/xlink" version="1.1" x="8.000000000000004" y="0" viewBox="2.7552723190174166 0.629376258843446 42.41368297383108 46.76849318417376" enable-background="new 0 0 48 48" xml:space="preserve" height="68.12498997097313" width="61.78158692959658" class="icon-icon-0" data-fill-palette-color="accent" id="icon-0"><g fill="#ff4136" data-fill-palette-color="accent"><g fill="#ff4136" data-fill-palette-color="accent"><g fill="#ff4136" data-fill-palette-color="accent"><path fill="#ff4136" d="M4.2 25.8c-0.9-7 13.2-7.6 17.1-7.9 6.4-0.5 13.6 0.3 19.4 3.3 2.4 1.1 3 3 1.5 5.8-1.7 1.7-4.6 2.3-6.9 2.9-3.3 0.9-6.7 1.1-10.1 1.2C19.9 31.3 6.1 30.8 4 24.3c-0.2-0.8-1.5-0.4-1.2 0.3 1.1 3.4 3.5 4.6 6.8 5.6 5.6 1.7 11.5 2.3 17.4 2.2 4.5-0.1 19.3-1.4 18.1-8.8-0.4-2.2-4.8-4-6.5-4.7-5.4-2.1-11.5-2.5-17.3-2.3C16 16.9 1.9 17.9 2.9 25.8 3 26.6 4.3 26.6 4.2 25.8L4.2 25.8z" data-fill-palette-color="accent"></path></g></g><g fill="#ff4136" data-fill-palette-color="accent"><g fill="#ff4136" data-fill-palette-color="accent"><path fill="#ff4136" d="M2.8 24.7c0.8 5.3 3.9 9.1 7.4 13 3.3 3.7 8.6 3.6 13.2 3.8 4.9 0.2 9.9-1 14.2-3.4 4.2-2.4 5.5-7.7 7.3-11.8 0.3-0.7-0.8-1.4-1.1-0.6-1.4 3.3-2.5 6.9-4.8 9.7-3 3.7-9.5 4.7-13.9 4.8-4.7 0.2-10.4 0-13.9-3.4-3.5-3.4-6.3-7.6-7-12.5C3.9 23.5 2.7 23.9 2.8 24.7L2.8 24.7z" data-fill-palette-color="accent"></path></g></g><g fill="#ff4136" data-fill-palette-color="accent"><g fill="#ff4136" data-fill-palette-color="accent"><path fill="#ff4136" d="M34.4 39.1c1.7 2.5 3.4 5 5.1 7.5 0.4 0.7 1.5 0 1.1-0.6-1.6-2.5-3.3-5.1-5.1-7.5C35 37.8 33.9 38.4 34.4 39.1L34.4 39.1z" data-fill-palette-color="accent"></path></g></g><g fill="#ff4136" data-fill-palette-color="accent"><g fill="#ff4136" data-fill-palette-color="accent"><path fill="#ff4136" d="M8.5 47.2c2.1-2.1 3.4-4.9 5.2-7.2 0.5-0.6-0.4-1.5-0.9-0.9-1.8 2.3-3.2 5.1-5.2 7.2C7 46.9 7.9 47.8 8.5 47.2L8.5 47.2z" data-fill-palette-color="accent"></path></g></g><g fill="#ff4136" data-fill-palette-color="accent"><g fill="#ff4136" data-fill-palette-color="accent"><path fill="#ff4136" d="M19.2 1.4c0.7 2.5-0.9 4.2-0.8 6.5 0.1 2 4.1 4.4 2.1 6.5-0.6 0.6 0.3 1.5 0.9 0.9 1.6-1.6 0.9-3.5-0.4-5.2-2.1-2.7 0.4-5.9-0.5-9C20.2 0.3 18.9 0.6 19.2 1.4L19.2 1.4z" data-fill-palette-color="accent"></path></g></g><g fill="#ff4136" data-fill-palette-color="accent"><g fill="#ff4136" data-fill-palette-color="accent"><path fill="#ff4136" d="M23.3 4.1c-0.1 1.4-0.4 2.9 0.5 4.1 0.5 0.7 1 1.4 1.5 2.1 0.3 0.4 0.5 0.9 0.6 1.5-0.4 0.3-0.9 0.5-1.3 0.7-0.7 0.4-0.1 1.5 0.6 1.1 1.2-0.6 2.6-1.2 1.8-2.8-0.6-1.1-1.3-2.2-2.1-3.2-0.7-0.9-0.4-2.3-0.3-3.4C24.6 3.3 23.4 3.3 23.3 4.1L23.3 4.1z" data-fill-palette-color="accent"></path></g></g><g fill="#ff4136" data-fill-palette-color="accent"><g fill="#ff4136" data-fill-palette-color="accent"><path fill="#ff4136" d="M14.5 7.7c-0.2 1.8 0.1 3.8 1.8 4.8 0.7 0.4 1.3-0.7 0.6-1.1-1.3-0.7-1.4-2.3-1.2-3.7C15.8 6.9 14.6 6.9 14.5 7.7L14.5 7.7z" data-fill-palette-color="accent"></path></g></g><g fill="#ff4136" data-fill-palette-color="accent"><g fill="#ff4136" data-fill-palette-color="accent"><path fill="#ff4136" d="M9.9 23.4c4.9 3.1 10.1 5.3 16 5.4 2 0 6.4-1.7 4.9-4.5-0.4-0.8-1-0.9-1.8-0.9-3.3 0.1-6.2 0.3-9.4-0.6-1.5-0.4-2.8-1.1-4.1-2-0.5-0.3-1.3-1.2-2-1.2-1.3 0-2.5 1.2-3.3 2.1-0.6 0.6 0.3 1.5 0.9 0.9 2.7-2.7 4.3 0.1 7.1 1 2.4 0.8 4.7 1.2 7.2 1.3 1.2 0 2.4-0.1 3.6-0.2-1 2.3-2.5 3.2-4.4 2.9-1.3-0.1-2.7-0.3-3.9-0.6-3.6-0.8-6.9-2.7-10-4.6C9.8 21.9 9.2 22.9 9.9 23.4L9.9 23.4z" data-fill-palette-color="accent"></path></g></g><g fill="#ff4136" data-fill-palette-color="accent"><g fill="#ff4136" data-fill-palette-color="accent"><path fill="#ff4136" d="M22.1 18.6c-0.5 0.7-1 1.4-1.5 2.2-0.3 0.5-0.2 0.9 0.1 1.3 0.5 0.5 1.3 0.8 1.9 1.1 0.7 0.4 1.4 0.6 2.2 0.8 0.8 0.2 1.1-1 0.3-1.2-0.7-0.1-1.3-0.4-1.9-0.7-0.3-0.1-1.6-0.7-1.7-1 0 0.2 0 0.3-0.1 0.5 0.4-0.9 1.1-1.7 1.6-2.4C23.7 18.5 22.6 17.9 22.1 18.6L22.1 18.6z" data-fill-palette-color="accent"></path></g></g><g fill="#ff4136" data-fill-palette-color="accent"><g fill="#ff4136" data-fill-palette-color="accent"><path fill="#ff4136" d="M22.6 19.5c2.6 1.4 5.2 2.3 8.1 2.9 1.1 0.2 2.2 0.3 3.3 0.4 2 0.1 3.4-0.8 3.7 1.7 0.2-0.2 0.4-0.4 0.6-0.6-2.6 0.2-5.3 0.4-7.9 0.5-0.8 0.1-0.8 1.3 0 1.3 2.6-0.2 5.3-0.4 7.9-0.5 0.3 0 0.7-0.3 0.6-0.6-0.1-1.5 0.1-3-1.7-3-5.1-0.1-9.4-0.6-13.9-3C22.5 18 21.9 19.1 22.6 19.5L22.6 19.5z" data-fill-palette-color="accent"></path></g></g><g fill="#ff4136" data-fill-palette-color="accent"><g fill="#ff4136" data-fill-palette-color="accent"><path fill="#ff4136" d="M18.3 30.1c1.8-0.5 3.6-0.9 5.5-1.1 0.8-0.1 0.8-1.4 0-1.3-2 0.3-3.9 0.6-5.8 1.2C17.2 29.1 17.5 30.3 18.3 30.1L18.3 30.1z" data-fill-palette-color="accent"></path></g></g><g fill="#ff4136" data-fill-palette-color="accent"><g fill="#ff4136" data-fill-palette-color="accent"><path fill="#ff4136" d="M11.6 27.8c1.7 0 3.4-0.3 5.1-0.9 0.8-0.3 0.4-1.5-0.3-1.2-1.5 0.5-3.1 0.8-4.7 0.8C10.8 26.5 10.8 27.8 11.6 27.8L11.6 27.8z" data-fill-palette-color="accent"></path></g></g><g fill="#ff4136" data-fill-palette-color="accent"><g fill="#ff4136" data-fill-palette-color="accent"><path fill="#ff4136" d="M8.2 25.2c1.3 0.2 2.7 0.1 4-0.1 0.8-0.1 0.5-1.3-0.3-1.2-1.2 0.2-2.4 0.2-3.6 0C7.4 23.9 7.5 25.1 8.2 25.2L8.2 25.2z" data-fill-palette-color="accent"></path></g></g><g fill="#ff4136" data-fill-palette-color="accent"><g fill="#ff4136" data-fill-palette-color="accent"><path fill="#ff4136" d="M29 28c3.8 0.3 7.5-1.1 11.2-1.4 0.8 0 0.8-1.3 0-1.3-3.8 0.2-7.4 1.6-11.2 1.4C28.2 26.7 28.2 27.9 29 28L29 28z" data-fill-palette-color="accent"></path></g></g><g fill="#ff4136" data-fill-palette-color="accent"><g fill="#ff4136" data-fill-palette-color="accent"><path fill="#ff4136" d="M18.7 23.4c1.3 0 2.7-0.2 4-0.5 0.8-0.2 0.5-1.4-0.3-1.2-1.2 0.3-2.4 0.4-3.6 0.5C17.9 22.2 17.9 23.4 18.7 23.4L18.7 23.4z" data-fill-palette-color="accent"></path></g></g><g fill="#ff4136" data-fill-palette-color="accent"><g fill="#ff4136" data-fill-palette-color="accent"><path fill="#ff4136" d="M15.1 21.4c2.1-0.1 4.1-0.2 6.2-0.5 0.8-0.1 0.8-1.3 0-1.3-2 0.2-4.1 0.4-6.2 0.5C14.3 20.2 14.3 21.4 15.1 21.4L15.1 21.4z" data-fill-palette-color="accent"></path></g></g><g fill="#ff4136" data-fill-palette-color="accent"><g fill="#ff4136" data-fill-palette-color="accent"><path fill="#ff4136" d="M31.5 21.9c1.8-0.3 3.5-0.6 5.3-0.9 0.8-0.1 0.5-1.3-0.3-1.2-1.8 0.3-3.5 0.6-5.3 0.9C30.4 20.8 30.7 22 31.5 21.9L31.5 21.9z" data-fill-palette-color="accent"></path></g></g><g fill="#ff4136" data-fill-palette-color="accent"><g fill="#ff4136" data-fill-palette-color="accent"><path fill="#ff4136" d="M26.2 20.7c0.4-0.3 1-0.2 1.5-0.2 0.7 0 1.3 0 2 0 0.8 0 0.8-1.3 0-1.3-0.7 0-1.5 0-2.2 0-0.6 0-1.3-0.1-1.8 0.3C24.9 20.1 25.6 21.1 26.2 20.7L26.2 20.7z" data-fill-palette-color="accent"></path></g></g></g></svg></g></svg></g><g><rect width="138.9549899815088" height="2.3976516026008934" y="64.72733836837224" x="236.65079346479826" fill="#ff4136" data-fill-palette-color="accent"></rect><rect width="138.9549899815088" height="2.3976516026008934" y="64.72733836837224" x="19.91421655369288" fill="#ff4136" data-fill-palette-color="accent"></rect><rect width="138.9549899815088" height="2.3976516026008934" y="59.932035163170454" x="236.65079346479826" fill="#ff4136" data-fill-palette-color="accent"></rect><rect width="138.9549899815088" height="2.3976516026008934" y="59.932035163170454" x="19.91421655369288" fill="#ff4136" data-fill-palette-color="accent"></rect></g></svg></g></svg></g></svg></g><defs></defs></svg><rect width="395.52" height="247.2" fill="none" stroke="none" visibility="hidden"></rect></g></svg></g></svg>