<svg xmlns="http://www.w3.org/2000/svg" version="1.1" xmlns:xlink="http://www.w3.org/1999/xlink" xmlns:svgjs="http://svgjs.dev/svgjs" width="1000" height="1000" viewBox="0 0 1000 1000"><rect width="1000" height="1000" fill="#ffffff"></rect><g transform="matrix(0.7,0,0,0.7,149.57575757575756,282.1265587044535)"><svg viewBox="0 0 396 247" data-background-color="#111111" preserveAspectRatio="xMidYMid meet" height="623" width="1000" xmlns="http://www.w3.org/2000/svg" xmlns:xlink="http://www.w3.org/1999/xlink"><g id="tight-bounds" transform="matrix(1,0,0,1,0.2400000000000091,-0.09999999999999432)"><svg viewBox="0 0 395.52 247.2" height="247.2" width="395.52"><g><svg></svg></g><g><svg viewBox="0 0 395.52 247.2" height="247.2" width="395.52"><g><path d="M55.039 247.2l26.403-45.732 1.491 0-25.616 44.37h280.886l-25.617-44.37 1.492 0 26.403 45.732zM197.76 0l26.403 45.732-1.491 0-24.912-43.149-24.912 43.149-1.491 0z" fill="#000000" fill-rule="nonzero" stroke="none" stroke-width="1" stroke-linecap="butt" stroke-linejoin="miter" stroke-miterlimit="10" stroke-dasharray="" stroke-dashoffset="0" font-family="none" font-weight="none" font-size="none" text-anchor="none" style="mix-blend-mode: normal" data-fill-palette-color="tertiary"></path></g><g transform="matrix(1,0,0,1,35.07353202829762,67.97999999999999)"><svg viewBox="0 0 325.37293594340474 111.24" height="111.24" width="325.37293594340474"><g><svg viewBox="0 0 395.5199999999999 135.22220178648456" height="111.24" width="325.37293594340474"><g transform="matrix(1,0,0,1,0,81.0888571556844)"><svg viewBox="0 0 395.5199999999999 54.13334463080015" height="54.13334463080015" width="395.5199999999999"><g id="textblocktransform"><svg viewBox="0 0 395.5199999999999 54.13334463080015" height="54.13334463080015" width="395.5199999999999" id="textblock"><g><svg viewBox="0 0 395.5199999999999 26.587094308267545" height="26.587094308267545" width="395.5199999999999"><g transform="matrix(1,0,0,1,0,0)"><svg width="395.5199999999999" viewBox="0.75 -39.95 601.69 40.45" height="26.587094308267545" data-palette-color="#ffa458"><path d="M17.35-34.65L17.35-2Q17.35 0.4 14.35 0.4L14.35 0.4Q11.4 0.4 11.4-2L11.4-2 11.4-34.65 2.65-34.65Q0.85-34.65 0.75-37.2L0.75-37.2Q0.75-39.7 2.65-39.7L2.65-39.7 26.1-39.7Q28-39.7 27.9-37.2L27.9-37.2Q27.9-34.65 26.1-34.65L26.1-34.65 17.35-34.65ZM40.35-39.7L51.25-39.7Q52.55-39.7 53.95-39.15 55.35-38.6 56.65-37.75L56.65-37.75 56.6-37.75Q57.9-36.8 58.6-35.27 59.3-33.75 59.3-31.75L59.3-31.75 59.3-8Q59.3-3.95 56.6-1.95L56.6-1.95Q55.3-1 53.92-0.48 52.55 0.05 51.25 0.05L51.25 0.05 40.35 0.05Q39.05 0.05 37.67-0.48 36.3-1 35-1.95L35-1.95Q33.7-2.95 33-4.42 32.3-5.9 32.3-8L32.3-8 32.3-31.75Q32.3-33.75 33-35.27 33.7-36.8 35-37.75L35-37.75 34.95-37.75Q36.25-38.6 37.65-39.15 39.05-39.7 40.35-39.7L40.35-39.7ZM41.6-5L50-5Q51.85-5 52.6-6.05 53.35-7.1 53.35-8.4L53.35-8.4 53.35-31.3Q53.35-32.55 52.6-33.6 51.85-34.65 50-34.65L50-34.65 41.6-34.65Q39.75-34.65 39-33.6 38.25-32.55 38.25-31.3L38.25-31.3 38.25-8.4Q38.25-7.1 39-6.05 39.75-5 41.6-5L41.6-5ZM112.49-39.95L112.49-39.95Q114.09-39.95 115.99-39.2L115.99-39.2Q117.74-38.5 117.74-36.55L117.74-36.55 117.74-2.1Q117.74 0.3 114.79 0.3L114.79 0.3Q111.84 0.3 111.84-2.1L111.84-2.1 111.84-27.8 110.39-27.95 108.39-21.45 102.39-1.45Q101.84 0.3 99.69 0.25L99.69 0.25Q98.74 0.2 98.04-0.25 97.34-0.7 97.09-1.55L97.09-1.55 93.49-13.2Q92.39-16.65 91.29-20.23 90.19-23.8 88.89-28.15L88.89-28.15 87.44-27.95 87.44-2.1Q87.44 0.3 84.49 0.3L84.49 0.3Q81.54 0.3 81.54-2.1L81.54-2.1 81.54-36.55Q81.54-38.45 83.29-39.2L83.29-39.2Q85.14-39.95 86.84-39.9L86.84-39.9Q87.59-39.9 88.39-39.7 89.19-39.5 89.89-39.13 90.59-38.75 91.14-38.18 91.69-37.6 91.99-36.85L91.99-36.85 99.84-10.1Q100.69-13.05 101.64-16.5 102.59-19.95 103.59-23.5 104.59-27.05 105.57-30.53 106.54-34 107.39-37L107.39-37Q107.69-37.7 108.24-38.25 108.79-38.8 109.49-39.18 110.19-39.55 110.97-39.75 111.74-39.95 112.49-39.95ZM130.94-37.55L130.94-2.1Q130.94 0.3 127.94 0.3L127.94 0.3Q124.99 0.3 124.99-2.1L124.99-2.1 124.99-37.55Q124.99-39.95 127.94-39.95L127.94-39.95Q130.94-39.95 130.94-37.55L130.94-37.55ZM165.89-11.3L165.89-8Q165.89-3.95 163.19-1.95L163.19-1.95Q161.89-1 160.51-0.48 159.14 0.05 157.84 0.05L157.84 0.05 146.94 0.05Q145.64 0.05 144.26-0.48 142.89-1 141.59-1.95L141.59-1.95Q140.29-2.95 139.59-4.42 138.89-5.9 138.89-8L138.89-8 138.89-31.75Q138.89-33.75 139.59-35.27 140.29-36.8 141.59-37.75L141.59-37.75 141.54-37.75Q142.84-38.6 144.24-39.15 145.64-39.7 146.94-39.7L146.94-39.7 157.84-39.7Q159.14-39.7 160.54-39.15 161.94-38.6 163.24-37.75L163.24-37.75 163.19-37.75Q164.49-36.8 165.19-35.27 165.89-33.75 165.89-31.75L165.89-31.75 165.89-28.3Q165.89-25.9 162.89-25.9L162.89-25.9Q159.94-25.9 159.94-28.3L159.94-28.3 159.94-31.3Q159.94-32.55 159.19-33.6 158.44-34.65 156.59-34.65L156.59-34.65 148.19-34.65Q146.34-34.65 145.59-33.6 144.84-32.55 144.84-31.3L144.84-31.3 144.84-8.4Q144.84-7.1 145.59-6.05 146.34-5 148.19-5L148.19-5 156.59-5Q158.44-5 159.19-6.05 159.94-7.1 159.94-8.4L159.94-8.4 159.94-11.3Q159.94-13.65 162.89-13.65L162.89-13.65Q165.89-13.65 165.89-11.3L165.89-11.3ZM179.28-37.55L179.28-2.1Q179.28 0.3 176.28 0.3L176.28 0.3Q173.33 0.3 173.33-2.1L173.33-2.1 173.33-37.55Q173.33-39.95 176.28-39.95L176.28-39.95Q179.28-39.95 179.28-37.55L179.28-37.55ZM210.28-39.7L221.18-39.7Q222.48-39.7 223.88-39.15 225.28-38.6 226.58-37.75L226.58-37.75 226.53-37.75Q227.83-36.8 228.53-35.27 229.23-33.75 229.23-31.75L229.23-31.75 229.23-8Q229.23-3.95 226.53-1.95L226.53-1.95Q225.23-1 223.86-0.48 222.48 0.05 221.18 0.05L221.18 0.05 210.28 0.05Q208.98 0.05 207.6-0.48 206.23-1 204.93-1.95L204.93-1.95Q203.63-2.95 202.93-4.42 202.23-5.9 202.23-8L202.23-8 202.23-31.75Q202.23-33.75 202.93-35.27 203.63-36.8 204.93-37.75L204.93-37.75 204.88-37.75Q206.18-38.6 207.58-39.15 208.98-39.7 210.28-39.7L210.28-39.7ZM211.53-5L219.93-5Q221.78-5 222.53-6.05 223.28-7.1 223.28-8.4L223.28-8.4 223.28-31.3Q223.28-32.55 222.53-33.6 221.78-34.65 219.93-34.65L219.93-34.65 211.53-34.65Q209.68-34.65 208.93-33.6 208.18-32.55 208.18-31.3L208.18-31.3 208.18-8.4Q208.18-7.1 208.93-6.05 209.68-5 211.53-5L211.53-5ZM260.38-0.6L250.93-16.45 247.08-16.45Q246.23-16.45 245.75-17.13 245.28-17.8 245.28-18.95L245.28-18.95Q245.28-21.5 247.38-21.5L247.38-21.5 253.23-21.5Q255.08-21.5 255.83-22.55 256.58-23.6 256.58-24.85L256.58-24.85 256.58-31.3Q256.58-32.55 255.83-33.6 255.08-34.65 253.23-34.65L253.23-34.65 242.68-34.65 242.68-2.05Q242.68 0.35 239.73 0.35L239.73 0.35Q236.78 0.35 236.78-2.05L236.78-2.05 236.78-36.7Q236.78-38.5 237.7-39.1 238.63-39.7 239.93-39.7L239.93-39.7 254.48-39.7Q255.78-39.7 257.18-39.15 258.58-38.6 259.88-37.75L259.88-37.75 259.83-37.75Q261.13-36.8 261.83-35.27 262.53-33.75 262.53-31.75L262.53-31.75 262.53-24.45Q262.53-20.4 259.83-18.4L259.83-18.4Q259.28-18 258.65-17.65 258.03-17.3 257.38-16.95L257.38-16.95 265.38-3.75Q265.53-3.5 265.68-3.1 265.83-2.7 265.83-2.45L265.83-2.45Q265.83-1.25 264.13-0.15L264.13-0.15 264.13-0.2Q262.98 0.5 262.18 0.5L262.18 0.5Q261.03 0.5 260.33-0.65L260.33-0.65 260.38-0.6ZM307.62-10.5L307.62-37.55Q307.62-39.95 310.57-39.95L310.57-39.95Q313.52-39.95 313.52-37.55L313.52-37.55 313.52-3.05Q313.52-1.3 311.67-0.5L311.67-0.5 311.72-0.5Q310.92-0.15 310.02 0.05 309.12 0.25 308.27 0.25L308.27 0.25Q307.62 0.25 306.92 0.13 306.22 0 305.6-0.28 304.97-0.55 304.45-1.03 303.92-1.5 303.62-2.2L303.62-2.2 292.77-29.25 291.42-29.1 291.42-2.1Q291.42 0.3 288.42 0.3L288.42 0.3Q285.47 0.3 285.47-2.1L285.47-2.1 285.47-36.55Q285.47-38.6 287.27-39.3L287.27-39.3Q288.92-39.95 290.77-39.95L290.77-39.95Q292.07-39.95 293.4-39.43 294.72-38.9 295.42-37.45L295.42-37.45 306.22-10.35 307.62-10.5ZM328.97-39.7L339.87-39.7Q341.17-39.7 342.57-39.15 343.97-38.6 345.27-37.75L345.27-37.75 345.22-37.75Q346.52-36.8 347.22-35.27 347.92-33.75 347.92-31.75L347.92-31.75 347.92-8Q347.92-3.95 345.22-1.95L345.22-1.95Q343.92-1 342.55-0.48 341.17 0.05 339.87 0.05L339.87 0.05 328.97 0.05Q327.67 0.05 326.3-0.48 324.92-1 323.62-1.95L323.62-1.95Q322.32-2.95 321.62-4.42 320.92-5.9 320.92-8L320.92-8 320.92-31.75Q320.92-33.75 321.62-35.27 322.32-36.8 323.62-37.75L323.62-37.75 323.57-37.75Q324.87-38.6 326.27-39.15 327.67-39.7 328.97-39.7L328.97-39.7ZM330.22-5L338.62-5Q340.47-5 341.22-6.05 341.97-7.1 341.97-8.4L341.97-8.4 341.97-31.3Q341.97-32.55 341.22-33.6 340.47-34.65 338.62-34.65L338.62-34.65 330.22-34.65Q328.37-34.65 327.62-33.6 326.87-32.55 326.87-31.3L326.87-31.3 326.87-8.4Q326.87-7.1 327.62-6.05 328.37-5 330.22-5L330.22-5ZM368.82-34.65L368.82-2Q368.82 0.4 365.82 0.4L365.82 0.4Q362.87 0.4 362.87-2L362.87-2 362.87-34.65 354.12-34.65Q352.32-34.65 352.22-37.2L352.22-37.2Q352.22-39.7 354.12-39.7L354.12-39.7 377.57-39.7Q379.47-39.7 379.37-37.2L379.37-37.2Q379.37-34.65 377.57-34.65L377.57-34.65 368.82-34.65ZM412.16-34.65L412.16-2Q412.16 0.4 409.16 0.4L409.16 0.4Q406.21 0.4 406.21-2L406.21-2 406.21-34.65 397.46-34.65Q395.66-34.65 395.56-37.2L395.56-37.2Q395.56-39.7 397.46-39.7L397.46-39.7 420.91-39.7Q422.81-39.7 422.71-37.2L422.71-37.2Q422.71-34.65 420.91-34.65L420.91-34.65 412.16-34.65ZM435.16-39.7L446.06-39.7Q447.36-39.7 448.76-39.15 450.16-38.6 451.46-37.75L451.46-37.75 451.41-37.75Q452.71-36.8 453.41-35.27 454.11-33.75 454.11-31.75L454.11-31.75 454.11-8Q454.11-3.95 451.41-1.95L451.41-1.95Q450.11-1 448.74-0.48 447.36 0.05 446.06 0.05L446.06 0.05 435.16 0.05Q433.86 0.05 432.49-0.48 431.11-1 429.81-1.95L429.81-1.95Q428.51-2.95 427.81-4.42 427.11-5.9 427.11-8L427.11-8 427.11-31.75Q427.11-33.75 427.81-35.27 428.51-36.8 429.81-37.75L429.81-37.75 429.76-37.75Q431.06-38.6 432.46-39.15 433.86-39.7 435.16-39.7L435.16-39.7ZM436.41-5L444.81-5Q446.66-5 447.41-6.05 448.16-7.1 448.16-8.4L448.16-8.4 448.16-31.3Q448.16-32.55 447.41-33.6 446.66-34.65 444.81-34.65L444.81-34.65 436.41-34.65Q434.56-34.65 433.81-33.6 433.06-32.55 433.06-31.3L433.06-31.3 433.06-8.4Q433.06-7.1 433.81-6.05 434.56-5 436.41-5L436.41-5ZM507.31-39.95L507.31-39.95Q508.91-39.95 510.81-39.2L510.81-39.2Q512.56-38.5 512.56-36.55L512.56-36.55 512.56-2.1Q512.56 0.3 509.61 0.3L509.61 0.3Q506.66 0.3 506.66-2.1L506.66-2.1 506.66-27.8 505.21-27.95 503.21-21.45 497.21-1.45Q496.66 0.3 494.51 0.25L494.51 0.25Q493.56 0.2 492.86-0.25 492.16-0.7 491.91-1.55L491.91-1.55 488.31-13.2Q487.21-16.65 486.11-20.23 485.01-23.8 483.71-28.15L483.71-28.15 482.26-27.95 482.26-2.1Q482.26 0.3 479.31 0.3L479.31 0.3Q476.36 0.3 476.36-2.1L476.36-2.1 476.36-36.55Q476.36-38.45 478.11-39.2L478.11-39.2Q479.96-39.95 481.66-39.9L481.66-39.9Q482.41-39.9 483.21-39.7 484.01-39.5 484.71-39.13 485.41-38.75 485.96-38.18 486.51-37.6 486.81-36.85L486.81-36.85 494.66-10.1Q495.51-13.05 496.46-16.5 497.41-19.95 498.41-23.5 499.41-27.05 500.38-30.53 501.36-34 502.21-37L502.21-37Q502.51-37.7 503.06-38.25 503.61-38.8 504.31-39.18 505.01-39.55 505.78-39.75 506.56-39.95 507.31-39.95ZM525.75-37.55L525.75-2.1Q525.75 0.3 522.75 0.3L522.75 0.3Q519.8 0.3 519.8-2.1L519.8-2.1 519.8-37.55Q519.8-39.95 522.75-39.95L522.75-39.95Q525.75-39.95 525.75-37.55L525.75-37.55ZM560.7-11.3L560.7-8Q560.7-3.95 558-1.95L558-1.95Q556.7-1 555.33-0.48 553.95 0.05 552.65 0.05L552.65 0.05 541.75 0.05Q540.45 0.05 539.08-0.48 537.7-1 536.4-1.95L536.4-1.95Q535.1-2.95 534.4-4.42 533.7-5.9 533.7-8L533.7-8 533.7-31.75Q533.7-33.75 534.4-35.27 535.1-36.8 536.4-37.75L536.4-37.75 536.35-37.75Q537.65-38.6 539.05-39.15 540.45-39.7 541.75-39.7L541.75-39.7 552.65-39.7Q553.95-39.7 555.35-39.15 556.75-38.6 558.05-37.75L558.05-37.75 558-37.75Q559.3-36.8 560-35.27 560.7-33.75 560.7-31.75L560.7-31.75 560.7-28.3Q560.7-25.9 557.7-25.9L557.7-25.9Q554.75-25.9 554.75-28.3L554.75-28.3 554.75-31.3Q554.75-32.55 554-33.6 553.25-34.65 551.4-34.65L551.4-34.65 543-34.65Q541.15-34.65 540.4-33.6 539.65-32.55 539.65-31.3L539.65-31.3 539.65-8.4Q539.65-7.1 540.4-6.05 541.15-5 543-5L543-5 551.4-5Q553.25-5 554-6.05 554.75-7.1 554.75-8.4L554.75-8.4 554.75-11.3Q554.75-13.65 557.7-13.65L557.7-13.65Q560.7-13.65 560.7-11.3L560.7-11.3ZM574.1-37.55L574.1-2.1Q574.1 0.3 571.1 0.3L571.1 0.3Q568.15 0.3 568.15-2.1L568.15-2.1 568.15-37.55Q568.15-39.95 571.1-39.95L571.1-39.95Q574.1-39.95 574.1-37.55L574.1-37.55ZM588.64-39.7L594.44-39.7Q595.64-39.7 597.07-39.15 598.49-38.6 599.79-37.75L599.79-37.75 599.74-37.75Q601.04-36.8 601.74-35.27 602.44-33.75 602.44-31.75L602.44-31.75 602.44-29.35Q602.44-24.7 597.94-21.8L597.94-21.8Q593.44-18.95 593.44-16L593.44-16 593.44-12.15Q593.44-10 590.44-9.9L590.44-9.9Q587.54-9.9 587.54-12.15L587.54-12.15 587.54-15.9Q587.54-18.75 588.72-20.75 589.89-22.75 591.99-23.8L591.99-23.8Q594.19-24.8 595.37-26.33 596.54-27.85 596.54-29.75L596.54-29.75 596.54-31.3Q596.54-32.55 595.77-33.6 594.99-34.65 593.14-34.65L593.14-34.65 589.89-34.65Q588.04-34.65 587.29-33.6 586.54-32.55 586.54-31.3L586.54-31.3 586.54-29.3Q586.54-26.95 583.54-26.95L583.54-26.95Q580.64-26.95 580.64-29.3L580.64-29.3 580.64-31.75Q580.64-35.8 583.29-37.75L583.29-37.75 583.24-37.75Q584.54-38.6 585.94-39.15 587.34-39.7 588.64-39.7L588.64-39.7ZM594.54-4.05L594.54-4.05Q594.54-2.3 593.37-1.13 592.19 0.05 590.49 0.05L590.49 0.05Q588.79 0.05 587.62-1.13 586.44-2.3 586.44-4.05L586.44-4.05Q586.44-5.75 587.62-6.9 588.79-8.05 590.49-8.05L590.49-8.05Q592.19-8.05 593.37-6.9 594.54-5.75 594.54-4.05Z" opacity="1" transform="matrix(1,0,0,1,0,0)" fill="#000000" class="wordmark-text-0" data-fill-palette-color="primary" id="text-0"></path></svg></g></svg></g><g transform="matrix(1,0,0,1,0,32.863669184186115)"><svg viewBox="0 0 395.5199999999999 21.269675446614038" height="21.269675446614038" width="395.5199999999999"><g transform="matrix(1,0,0,1,0,0)"><svg width="395.5199999999999" viewBox="5 -39 923.27 49.65" height="21.269675446614038" data-palette-color="#ff4136"><path d="M12.2-34.45Q20-34.45 24.73-30.83 29.45-27.2 29.45-17.4L29.45-17.4Q29.45-7.85 24.73-3.93 20 0 13.25 0L13.25 0 5 0 5-34.45 12.2-34.45ZM13.25-30.65L9.75-30.65 9.75-3.75 13.6-3.75Q18.4-3.75 21.4-6.7 24.4-9.65 24.4-17.4L24.4-17.4Q24.4-22.85 22.85-25.78 21.3-28.7 18.9-29.68 16.5-30.65 13.25-30.65L13.25-30.65ZM48.82-26.95Q54.37-26.95 57.44-23.25 60.52-19.55 60.52-13.2L60.52-13.2Q60.52-9.1 59.12-5.98 57.72-2.85 55.07-1.13 52.42 0.6 48.77 0.6L48.77 0.6Q43.22 0.6 40.12-3.1 37.02-6.8 37.02-13.15L37.02-13.15Q37.02-17.25 38.42-20.38 39.82-23.5 42.47-25.23 45.12-26.95 48.82-26.95L48.82-26.95ZM48.82-23.25Q41.97-23.25 41.97-13.15L41.97-13.15Q41.97-3.1 48.77-3.1L48.77-3.1Q55.57-3.1 55.57-13.2L55.57-13.2Q55.57-23.25 48.82-23.25L48.82-23.25ZM82.48-26.95Q86.08-26.95 88.11-24.8 90.13-22.65 90.13-18.9L90.13-18.9 90.13 0 85.53 0 85.53-18.25Q85.53-21.05 84.48-22.2 83.43-23.35 81.38-23.35L81.38-23.35Q79.28-23.35 77.68-22.15 76.08-20.95 74.68-18.7L74.68-18.7 74.68 0 70.08 0 70.08-26.35 74.03-26.35 74.43-22.45Q75.83-24.55 77.91-25.75 79.98-26.95 82.48-26.95L82.48-26.95ZM103.8-21.35L100.35-21.35 99.6-34.45 104.55-34.45 103.8-21.35ZM125.82-4.25L127.57-1.2Q124.97 0.6 121.67 0.6L121.67 0.6Q118.32 0.6 116.44-1.33 114.57-3.25 114.57-6.9L114.57-6.9 114.57-22.8 109.97-22.8 109.97-26.35 114.57-26.35 114.57-32.3 119.17-32.85 119.17-26.35 125.42-26.35 124.92-22.8 119.17-22.8 119.17-7.1Q119.17-5.05 119.89-4.13 120.62-3.2 122.32-3.2L122.32-3.2Q123.87-3.2 125.82-4.25L125.82-4.25ZM154.75 0.6Q152.2 0.6 150.73-0.93 149.25-2.45 149.25-5.2L149.25-5.2 149.25-36.95 153.85-37.5 153.85-5.3Q153.85-4.2 154.23-3.7 154.6-3.2 155.5-3.2L155.5-3.2Q156.45-3.2 157.2-3.5L157.2-3.5 158.4-0.3Q156.75 0.6 154.75 0.6L154.75 0.6ZM186.02-13.95Q186.02-12.8 185.92-11.6L185.92-11.6 169.12-11.6Q169.42-7.25 171.32-5.2 173.22-3.15 176.22-3.15L176.22-3.15Q178.12-3.15 179.72-3.7 181.32-4.25 183.07-5.45L183.07-5.45 185.07-2.7Q180.87 0.6 175.87 0.6L175.87 0.6Q170.37 0.6 167.29-3 164.22-6.6 164.22-12.9L164.22-12.9Q164.22-17 165.54-20.18 166.87-23.35 169.34-25.15 171.82-26.95 175.17-26.95L175.17-26.95Q180.42-26.95 183.22-23.5 186.02-20.05 186.02-13.95L186.02-13.95ZM181.47-15L181.47-15.3Q181.47-19.2 179.92-21.25 178.37-23.3 175.27-23.3L175.27-23.3Q169.62-23.3 169.12-15L169.12-15 181.47-15ZM206.89-4.25L208.64-1.2Q206.04 0.6 202.74 0.6L202.74 0.6Q199.39 0.6 197.51-1.33 195.64-3.25 195.64-6.9L195.64-6.9 195.64-22.8 191.04-22.8 191.04-26.35 195.64-26.35 195.64-32.3 200.24-32.85 200.24-26.35 206.49-26.35 205.99-22.8 200.24-22.8 200.24-7.1Q200.24-5.05 200.96-4.13 201.69-3.2 203.39-3.2L203.39-3.2Q204.94-3.2 206.89-4.25L206.89-4.25ZM242.12-4.25L243.87-1.2Q241.27 0.6 237.97 0.6L237.97 0.6Q234.62 0.6 232.75-1.33 230.87-3.25 230.87-6.9L230.87-6.9 230.87-22.8 226.27-22.8 226.27-26.35 230.87-26.35 230.87-32.3 235.47-32.85 235.47-26.35 241.72-26.35 241.22-22.8 235.47-22.8 235.47-7.1Q235.47-5.05 236.2-4.13 236.92-3.2 238.62-3.2L238.62-3.2Q240.17-3.2 242.12-4.25L242.12-4.25ZM262.99-26.95Q266.59-26.95 268.61-24.8 270.64-22.65 270.64-18.9L270.64-18.9 270.64 0 266.04 0 266.04-18.25Q266.04-21.05 264.96-22.2 263.89-23.35 261.84-23.35L261.84-23.35Q259.79-23.35 258.19-22.15 256.59-20.95 255.19-18.75L255.19-18.75 255.19 0 250.59 0 250.59-36.9 255.19-37.4 255.19-22.7Q258.29-26.95 262.99-26.95L262.99-26.95ZM301.75-13.95Q301.75-12.8 301.65-11.6L301.65-11.6 284.85-11.6Q285.15-7.25 287.05-5.2 288.95-3.15 291.95-3.15L291.95-3.15Q293.85-3.15 295.45-3.7 297.05-4.25 298.8-5.45L298.8-5.45 300.8-2.7Q296.6 0.6 291.6 0.6L291.6 0.6Q286.1 0.6 283.03-3 279.95-6.6 279.95-12.9L279.95-12.9Q279.95-17 281.28-20.18 282.6-23.35 285.08-25.15 287.55-26.95 290.9-26.95L290.9-26.95Q296.15-26.95 298.95-23.5 301.75-20.05 301.75-13.95L301.75-13.95ZM297.2-15L297.2-15.3Q297.2-19.2 295.65-21.25 294.1-23.3 291-23.3L291-23.3Q285.35-23.3 284.85-15L284.85-15 297.2-15ZM351.99-26.35L356.39-26.35 350.39 0 344.14 0 339.54-22.2 334.79 0 328.69 0 322.54-26.35 327.14-26.35 331.89-3.2 337.09-26.35 342.24-26.35 347.19-3.2 351.99-26.35ZM384.01-13.95Q384.01-12.8 383.91-11.6L383.91-11.6 367.11-11.6Q367.41-7.25 369.31-5.2 371.21-3.15 374.21-3.15L374.21-3.15Q376.11-3.15 377.71-3.7 379.31-4.25 381.06-5.45L381.06-5.45 383.06-2.7Q378.86 0.6 373.86 0.6L373.86 0.6Q368.36 0.6 365.28-3 362.21-6.6 362.21-12.9L362.21-12.9Q362.21-17 363.53-20.18 364.86-23.35 367.33-25.15 369.81-26.95 373.16-26.95L373.16-26.95Q378.41-26.95 381.21-23.5 384.01-20.05 384.01-13.95L384.01-13.95ZM379.46-15L379.46-15.3Q379.46-19.2 377.91-21.25 376.36-23.3 373.26-23.3L373.26-23.3Q367.61-23.3 367.11-15L367.11-15 379.46-15ZM411.07-6.15Q411.07-4.55 411.62-3.78 412.17-3 413.27-2.6L413.27-2.6 412.22 0.6Q410.17 0.35 408.92-0.55 407.67-1.45 407.07-3.35L407.07-3.35Q404.42 0.6 399.22 0.6L399.22 0.6Q395.32 0.6 393.07-1.6 390.82-3.8 390.82-7.35L390.82-7.35Q390.82-11.55 393.85-13.8 396.87-16.05 402.42-16.05L402.42-16.05 406.47-16.05 406.47-18Q406.47-20.8 405.12-22 403.77-23.2 400.97-23.2L400.97-23.2Q398.07-23.2 393.87-21.8L393.87-21.8 392.72-25.15Q397.62-26.95 401.82-26.95L401.82-26.95Q406.47-26.95 408.77-24.68 411.07-22.4 411.07-18.2L411.07-18.2 411.07-6.15ZM400.27-2.85Q404.22-2.85 406.47-6.95L406.47-6.95 406.47-13 403.02-13Q395.72-13 395.72-7.6L395.72-7.6Q395.72-5.25 396.87-4.05 398.02-2.85 400.27-2.85L400.27-2.85ZM434.04-4.25L435.79-1.2Q433.19 0.6 429.89 0.6L429.89 0.6Q426.54 0.6 424.67-1.33 422.79-3.25 422.79-6.9L422.79-6.9 422.79-22.8 418.19-22.8 418.19-26.35 422.79-26.35 422.79-32.3 427.39-32.85 427.39-26.35 433.64-26.35 433.14-22.8 427.39-22.8 427.39-7.1Q427.39-5.05 428.12-4.13 428.84-3.2 430.54-3.2L430.54-3.2Q432.09-3.2 434.04-4.25L434.04-4.25ZM454.91-26.95Q458.51-26.95 460.53-24.8 462.56-22.65 462.56-18.9L462.56-18.9 462.56 0 457.96 0 457.96-18.25Q457.96-21.05 456.88-22.2 455.81-23.35 453.76-23.35L453.76-23.35Q451.71-23.35 450.11-22.15 448.51-20.95 447.11-18.75L447.11-18.75 447.11 0 442.51 0 442.51-36.9 447.11-37.4 447.11-22.7Q450.21-26.95 454.91-26.95L454.91-26.95ZM493.67-13.95Q493.67-12.8 493.57-11.6L493.57-11.6 476.77-11.6Q477.07-7.25 478.97-5.2 480.87-3.15 483.87-3.15L483.87-3.15Q485.77-3.15 487.37-3.7 488.97-4.25 490.72-5.45L490.72-5.45 492.72-2.7Q488.52 0.6 483.52 0.6L483.52 0.6Q478.02 0.6 474.95-3 471.87-6.6 471.87-12.9L471.87-12.9Q471.87-17 473.2-20.18 474.52-23.35 477-25.15 479.47-26.95 482.82-26.95L482.82-26.95Q488.07-26.95 490.87-23.5 493.67-20.05 493.67-13.95L493.67-13.95ZM489.12-15L489.12-15.3Q489.12-19.2 487.57-21.25 486.02-23.3 482.92-23.3L482.92-23.3Q477.27-23.3 476.77-15L476.77-15 489.12-15ZM514.44-26.95Q515.84-26.95 517.04-26.65L517.04-26.65 516.19-22.15Q514.99-22.45 513.89-22.45L513.89-22.45Q511.44-22.45 509.94-20.65 508.44-18.85 507.59-15.05L507.59-15.05 507.59 0 502.99 0 502.99-26.35 506.94-26.35 507.39-21Q508.44-23.95 510.24-25.45 512.04-26.95 514.44-26.95L514.44-26.95ZM550.93-26.95Q552.33-26.95 553.53-26.65L553.53-26.65 552.68-22.15Q551.48-22.45 550.38-22.45L550.38-22.45Q547.93-22.45 546.43-20.65 544.93-18.85 544.08-15.05L544.08-15.05 544.08 0 539.48 0 539.48-26.35 543.43-26.35 543.88-21Q544.93-23.95 546.73-25.45 548.53-26.95 550.93-26.95L550.93-26.95ZM580.34-26.35L580.34 0 576.39 0 576.04-4.1Q574.54-1.65 572.59-0.53 570.64 0.6 567.84 0.6L567.84 0.6Q564.39 0.6 562.44-1.5 560.49-3.6 560.49-7.45L560.49-7.45 560.49-26.35 565.09-26.35 565.09-7.95Q565.09-5.25 566.04-4.13 566.99-3 569.14-3L569.14-3Q572.99-3 575.74-7.55L575.74-7.55 575.74-26.35 580.34-26.35ZM591.81-26.35L596.41-26.35 596.41 0 591.81 0 591.81-26.35ZM594.06-39Q595.51-39 596.41-38.1 597.31-37.2 597.31-35.85L597.31-35.85Q597.31-34.5 596.41-33.63 595.51-32.75 594.06-32.75L594.06-32.75Q592.66-32.75 591.76-33.63 590.86-34.5 590.86-35.85L590.86-35.85Q590.86-37.2 591.76-38.1 592.66-39 594.06-39L594.06-39ZM620.28-26.95Q623.88-26.95 625.9-24.8 627.93-22.65 627.93-18.9L627.93-18.9 627.93 0 623.33 0 623.33-18.25Q623.33-21.05 622.28-22.2 621.23-23.35 619.18-23.35L619.18-23.35Q617.08-23.35 615.48-22.15 613.88-20.95 612.48-18.7L612.48-18.7 612.48 0 607.88 0 607.88-26.35 611.83-26.35 612.23-22.45Q613.63-24.55 615.7-25.75 617.78-26.95 620.28-26.95L620.28-26.95ZM673.71-26.35L664.91 0.15Q663.36 4.75 660.59 7.43 657.81 10.1 652.66 10.65L652.66 10.65 652.16 7.05Q654.76 6.6 656.31 5.75 657.86 4.9 658.79 3.58 659.71 2.25 660.51 0L660.51 0 658.96 0 650.11-26.35 655.01-26.35 662.06-3.35 668.96-26.35 673.71-26.35ZM690.83-26.95Q696.38-26.95 699.45-23.25 702.53-19.55 702.53-13.2L702.53-13.2Q702.53-9.1 701.13-5.98 699.73-2.85 697.08-1.13 694.43 0.6 690.78 0.6L690.78 0.6Q685.23 0.6 682.13-3.1 679.03-6.8 679.03-13.15L679.03-13.15Q679.03-17.25 680.43-20.38 681.83-23.5 684.48-25.23 687.13-26.95 690.83-26.95L690.83-26.95ZM690.83-23.25Q683.98-23.25 683.98-13.15L683.98-13.15Q683.98-3.1 690.78-3.1L690.78-3.1Q697.58-3.1 697.58-13.2L697.58-13.2Q697.58-23.25 690.83-23.25L690.83-23.25ZM731.7-26.35L731.7 0 727.75 0 727.4-4.1Q725.9-1.65 723.95-0.53 722 0.6 719.2 0.6L719.2 0.6Q715.75 0.6 713.8-1.5 711.85-3.6 711.85-7.45L711.85-7.45 711.85-26.35 716.45-26.35 716.45-7.95Q716.45-5.25 717.4-4.13 718.35-3 720.5-3L720.5-3Q724.35-3 727.1-7.55L727.1-7.55 727.1-26.35 731.7-26.35ZM754.61-26.95Q756.01-26.95 757.21-26.65L757.21-26.65 756.36-22.15Q755.16-22.45 754.06-22.45L754.06-22.45Q751.61-22.45 750.11-20.65 748.61-18.85 747.76-15.05L747.76-15.05 747.76 0 743.16 0 743.16-26.35 747.11-26.35 747.56-21Q748.61-23.95 750.41-25.45 752.21-26.95 754.61-26.95L754.61-26.95ZM784.9 0.6Q782.35 0.6 780.87-0.93 779.4-2.45 779.4-5.2L779.4-5.2 779.4-36.95 784-37.5 784-5.3Q784-4.2 784.37-3.7 784.75-3.2 785.65-3.2L785.65-3.2Q786.6-3.2 787.35-3.5L787.35-3.5 788.55-0.3Q786.9 0.6 784.9 0.6L784.9 0.6ZM796.26-26.35L800.86-26.35 800.86 0 796.26 0 796.26-26.35ZM798.51-39Q799.96-39 800.86-38.1 801.76-37.2 801.76-35.85L801.76-35.85Q801.76-34.5 800.86-33.63 799.96-32.75 798.51-32.75L798.51-32.75Q797.11-32.75 796.21-33.63 795.31-34.5 795.31-35.85L795.31-35.85Q795.31-37.2 796.21-38.1 797.11-39 798.51-39L798.51-39ZM823.88-4.25L825.63-1.2Q823.03 0.6 819.73 0.6L819.73 0.6Q816.38 0.6 814.51-1.33 812.63-3.25 812.63-6.9L812.63-6.9 812.63-22.8 808.03-22.8 808.03-26.35 812.63-26.35 812.63-32.3 817.23-32.85 817.23-26.35 823.48-26.35 822.98-22.8 817.23-22.8 817.23-7.1Q817.23-5.05 817.96-4.13 818.68-3.2 820.38-3.2L820.38-3.2Q821.93-3.2 823.88-4.25L823.88-4.25ZM843.9-4.25L845.65-1.2Q843.05 0.6 839.75 0.6L839.75 0.6Q836.4 0.6 834.52-1.33 832.65-3.25 832.65-6.9L832.65-6.9 832.65-22.8 828.05-22.8 828.05-26.35 832.65-26.35 832.65-32.3 837.25-32.85 837.25-26.35 843.5-26.35 843-22.8 837.25-22.8 837.25-7.1Q837.25-5.05 837.97-4.13 838.7-3.2 840.4-3.2L840.4-3.2Q841.95-3.2 843.9-4.25L843.9-4.25ZM857.61 0.6Q855.06 0.6 853.59-0.93 852.11-2.45 852.11-5.2L852.11-5.2 852.11-36.95 856.71-37.5 856.71-5.3Q856.71-4.2 857.09-3.7 857.46-3.2 858.36-3.2L858.36-3.2Q859.31-3.2 860.06-3.5L860.06-3.5 861.26-0.3Q859.61 0.6 857.61 0.6L857.61 0.6ZM888.88-13.95Q888.88-12.8 888.78-11.6L888.78-11.6 871.98-11.6Q872.28-7.25 874.18-5.2 876.08-3.15 879.08-3.15L879.08-3.15Q880.98-3.15 882.58-3.7 884.18-4.25 885.93-5.45L885.93-5.45 887.93-2.7Q883.73 0.6 878.73 0.6L878.73 0.6Q873.23 0.6 870.16-3 867.08-6.6 867.08-12.9L867.08-12.9Q867.08-17 868.41-20.18 869.73-23.35 872.21-25.15 874.68-26.95 878.03-26.95L878.03-26.95Q883.28-26.95 886.08-23.5 888.88-20.05 888.88-13.95L888.88-13.95ZM884.33-15L884.33-15.3Q884.33-19.2 882.78-21.25 881.23-23.3 878.13-23.3L878.13-23.3Q872.48-23.3 871.98-15L871.98-15 884.33-15ZM905.35-26.95Q908.05-26.95 910.2-26.2 912.35-25.45 914.3-23.95L914.3-23.95 912.35-21.05Q910.55-22.2 908.92-22.75 907.3-23.3 905.5-23.3L905.5-23.3Q903.25-23.3 901.95-22.38 900.65-21.45 900.65-19.85L900.65-19.85Q900.65-18.25 901.87-17.35 903.1-16.45 906.3-15.6L906.3-15.6Q910.7-14.5 912.87-12.6 915.05-10.7 915.05-7.4L915.05-7.4Q915.05-3.5 912.02-1.45 909 0.6 904.65 0.6L904.65 0.6Q898.65 0.6 894.7-2.85L894.7-2.85 897.15-5.65Q900.5-3.1 904.55-3.1L904.55-3.1Q907.15-3.1 908.67-4.17 910.2-5.25 910.2-7.1L910.2-7.1Q910.2-8.45 909.65-9.28 909.1-10.1 907.75-10.73 906.4-11.35 903.8-12.05L903.8-12.05Q899.6-13.15 897.72-15 895.85-16.85 895.85-19.7L895.85-19.7Q895.85-21.75 897.07-23.43 898.3-25.1 900.47-26.03 902.65-26.95 905.35-26.95L905.35-26.95ZM922.17-34.45L927.27-34.45 926.77-11.5 922.72-11.5 922.17-34.45ZM924.77-6.35Q926.27-6.35 927.27-5.35 928.27-4.35 928.27-2.9L928.27-2.9Q928.27-1.45 927.27-0.43 926.27 0.6 924.77 0.6L924.77 0.6Q923.32 0.6 922.32-0.43 921.32-1.45 921.32-2.9L921.32-2.9Q921.32-4.35 922.32-5.35 923.32-6.35 924.77-6.35L924.77-6.35Z" opacity="1" transform="matrix(1,0,0,1,0,0)" fill="#000000" class="slogan-text-1" data-fill-palette-color="secondary" id="text-1"></path></svg></g></svg></g></svg></g></svg></g><g transform="matrix(1,0,0,1,155.83690127339293,0)"><svg viewBox="0 0 83.84619745321406 74.81228227976582" height="74.81228227976582" width="83.84619745321406"><g><svg xmlns="http://www.w3.org/2000/svg" xmlns:xlink="http://www.w3.org/1999/xlink" version="1.1" x="8" y="0" viewBox="2.7552723190174166 0.629376258843446 42.41368297383108 46.76849318417376" enable-background="new 0 0 48 48" xml:space="preserve" height="74.81228227976582" width="67.84619745321406" class="icon-icon-0" data-fill-palette-color="accent" id="icon-0"><g fill="#ff4136" data-fill-palette-color="accent"><g fill="#ff4136" data-fill-palette-color="accent"><g fill="#ff4136" data-fill-palette-color="accent"><path fill="#000000" d="M4.2 25.8c-0.9-7 13.2-7.6 17.1-7.9 6.4-0.5 13.6 0.3 19.4 3.3 2.4 1.1 3 3 1.5 5.8-1.7 1.7-4.6 2.3-6.9 2.9-3.3 0.9-6.7 1.1-10.1 1.2C19.9 31.3 6.1 30.8 4 24.3c-0.2-0.8-1.5-0.4-1.2 0.3 1.1 3.4 3.5 4.6 6.8 5.6 5.6 1.7 11.5 2.3 17.4 2.2 4.5-0.1 19.3-1.4 18.1-8.8-0.4-2.2-4.8-4-6.5-4.7-5.4-2.1-11.5-2.5-17.3-2.3C16 16.9 1.9 17.9 2.9 25.8 3 26.6 4.3 26.6 4.2 25.8L4.2 25.8z" data-fill-palette-color="accent"></path></g></g><g fill="#ff4136" data-fill-palette-color="accent"><g fill="#ff4136" data-fill-palette-color="accent"><path fill="#000000" d="M2.8 24.7c0.8 5.3 3.9 9.1 7.4 13 3.3 3.7 8.6 3.6 13.2 3.8 4.9 0.2 9.9-1 14.2-3.4 4.2-2.4 5.5-7.7 7.3-11.8 0.3-0.7-0.8-1.4-1.1-0.6-1.4 3.3-2.5 6.9-4.8 9.7-3 3.7-9.5 4.7-13.9 4.8-4.7 0.2-10.4 0-13.9-3.4-3.5-3.4-6.3-7.6-7-12.5C3.9 23.5 2.7 23.9 2.8 24.7L2.8 24.7z" data-fill-palette-color="accent"></path></g></g><g fill="#ff4136" data-fill-palette-color="accent"><g fill="#ff4136" data-fill-palette-color="accent"><path fill="#000000" d="M34.4 39.1c1.7 2.5 3.4 5 5.1 7.5 0.4 0.7 1.5 0 1.1-0.6-1.6-2.5-3.3-5.1-5.1-7.5C35 37.8 33.9 38.4 34.4 39.1L34.4 39.1z" data-fill-palette-color="accent"></path></g></g><g fill="#ff4136" data-fill-palette-color="accent"><g fill="#ff4136" data-fill-palette-color="accent"><path fill="#000000" d="M8.5 47.2c2.1-2.1 3.4-4.9 5.2-7.2 0.5-0.6-0.4-1.5-0.9-0.9-1.8 2.3-3.2 5.1-5.2 7.2C7 46.9 7.9 47.8 8.5 47.2L8.5 47.2z" data-fill-palette-color="accent"></path></g></g><g fill="#ff4136" data-fill-palette-color="accent"><g fill="#ff4136" data-fill-palette-color="accent"><path fill="#000000" d="M19.2 1.4c0.7 2.5-0.9 4.2-0.8 6.5 0.1 2 4.1 4.4 2.1 6.5-0.6 0.6 0.3 1.5 0.9 0.9 1.6-1.6 0.9-3.5-0.4-5.2-2.1-2.7 0.4-5.9-0.5-9C20.2 0.3 18.9 0.6 19.2 1.4L19.2 1.4z" data-fill-palette-color="accent"></path></g></g><g fill="#ff4136" data-fill-palette-color="accent"><g fill="#ff4136" data-fill-palette-color="accent"><path fill="#000000" d="M23.3 4.1c-0.1 1.4-0.4 2.9 0.5 4.1 0.5 0.7 1 1.4 1.5 2.1 0.3 0.4 0.5 0.9 0.6 1.5-0.4 0.3-0.9 0.5-1.3 0.7-0.7 0.4-0.1 1.5 0.6 1.1 1.2-0.6 2.6-1.2 1.8-2.8-0.6-1.1-1.3-2.2-2.1-3.2-0.7-0.9-0.4-2.3-0.3-3.4C24.6 3.3 23.4 3.3 23.3 4.1L23.3 4.1z" data-fill-palette-color="accent"></path></g></g><g fill="#ff4136" data-fill-palette-color="accent"><g fill="#ff4136" data-fill-palette-color="accent"><path fill="#000000" d="M14.5 7.7c-0.2 1.8 0.1 3.8 1.8 4.8 0.7 0.4 1.3-0.7 0.6-1.1-1.3-0.7-1.4-2.3-1.2-3.7C15.8 6.9 14.6 6.9 14.5 7.7L14.5 7.7z" data-fill-palette-color="accent"></path></g></g><g fill="#ff4136" data-fill-palette-color="accent"><g fill="#ff4136" data-fill-palette-color="accent"><path fill="#000000" d="M9.9 23.4c4.9 3.1 10.1 5.3 16 5.4 2 0 6.4-1.7 4.9-4.5-0.4-0.8-1-0.9-1.8-0.9-3.3 0.1-6.2 0.3-9.4-0.6-1.5-0.4-2.8-1.1-4.1-2-0.5-0.3-1.3-1.2-2-1.2-1.3 0-2.5 1.2-3.3 2.1-0.6 0.6 0.3 1.5 0.9 0.9 2.7-2.7 4.3 0.1 7.1 1 2.4 0.8 4.7 1.2 7.2 1.3 1.2 0 2.4-0.1 3.6-0.2-1 2.3-2.5 3.2-4.4 2.9-1.3-0.1-2.7-0.3-3.9-0.6-3.6-0.8-6.9-2.7-10-4.6C9.8 21.9 9.2 22.9 9.9 23.4L9.9 23.4z" data-fill-palette-color="accent"></path></g></g><g fill="#ff4136" data-fill-palette-color="accent"><g fill="#ff4136" data-fill-palette-color="accent"><path fill="#000000" d="M22.1 18.6c-0.5 0.7-1 1.4-1.5 2.2-0.3 0.5-0.2 0.9 0.1 1.3 0.5 0.5 1.3 0.8 1.9 1.1 0.7 0.4 1.4 0.6 2.2 0.8 0.8 0.2 1.1-1 0.3-1.2-0.7-0.1-1.3-0.4-1.9-0.7-0.3-0.1-1.6-0.7-1.7-1 0 0.2 0 0.3-0.1 0.5 0.4-0.9 1.1-1.7 1.6-2.4C23.7 18.5 22.6 17.9 22.1 18.6L22.1 18.6z" data-fill-palette-color="accent"></path></g></g><g fill="#ff4136" data-fill-palette-color="accent"><g fill="#ff4136" data-fill-palette-color="accent"><path fill="#000000" d="M22.6 19.5c2.6 1.4 5.2 2.3 8.1 2.9 1.1 0.2 2.2 0.3 3.3 0.4 2 0.1 3.4-0.8 3.7 1.7 0.2-0.2 0.4-0.4 0.6-0.6-2.6 0.2-5.3 0.4-7.9 0.5-0.8 0.1-0.8 1.3 0 1.3 2.6-0.2 5.3-0.4 7.9-0.5 0.3 0 0.7-0.3 0.6-0.6-0.1-1.5 0.1-3-1.7-3-5.1-0.1-9.4-0.6-13.9-3C22.5 18 21.9 19.1 22.6 19.5L22.6 19.5z" data-fill-palette-color="accent"></path></g></g><g fill="#ff4136" data-fill-palette-color="accent"><g fill="#ff4136" data-fill-palette-color="accent"><path fill="#000000" d="M18.3 30.1c1.8-0.5 3.6-0.9 5.5-1.1 0.8-0.1 0.8-1.4 0-1.3-2 0.3-3.9 0.6-5.8 1.2C17.2 29.1 17.5 30.3 18.3 30.1L18.3 30.1z" data-fill-palette-color="accent"></path></g></g><g fill="#ff4136" data-fill-palette-color="accent"><g fill="#ff4136" data-fill-palette-color="accent"><path fill="#000000" d="M11.6 27.8c1.7 0 3.4-0.3 5.1-0.9 0.8-0.3 0.4-1.5-0.3-1.2-1.5 0.5-3.1 0.8-4.7 0.8C10.8 26.5 10.8 27.8 11.6 27.8L11.6 27.8z" data-fill-palette-color="accent"></path></g></g><g fill="#ff4136" data-fill-palette-color="accent"><g fill="#ff4136" data-fill-palette-color="accent"><path fill="#000000" d="M8.2 25.2c1.3 0.2 2.7 0.1 4-0.1 0.8-0.1 0.5-1.3-0.3-1.2-1.2 0.2-2.4 0.2-3.6 0C7.4 23.9 7.5 25.1 8.2 25.2L8.2 25.2z" data-fill-palette-color="accent"></path></g></g><g fill="#ff4136" data-fill-palette-color="accent"><g fill="#ff4136" data-fill-palette-color="accent"><path fill="#000000" d="M29 28c3.8 0.3 7.5-1.1 11.2-1.4 0.8 0 0.8-1.3 0-1.3-3.8 0.2-7.4 1.6-11.2 1.4C28.2 26.7 28.2 27.9 29 28L29 28z" data-fill-palette-color="accent"></path></g></g><g fill="#ff4136" data-fill-palette-color="accent"><g fill="#ff4136" data-fill-palette-color="accent"><path fill="#000000" d="M18.7 23.4c1.3 0 2.7-0.2 4-0.5 0.8-0.2 0.5-1.4-0.3-1.2-1.2 0.3-2.4 0.4-3.6 0.5C17.9 22.2 17.9 23.4 18.7 23.4L18.7 23.4z" data-fill-palette-color="accent"></path></g></g><g fill="#ff4136" data-fill-palette-color="accent"><g fill="#ff4136" data-fill-palette-color="accent"><path fill="#000000" d="M15.1 21.4c2.1-0.1 4.1-0.2 6.2-0.5 0.8-0.1 0.8-1.3 0-1.3-2 0.2-4.1 0.4-6.2 0.5C14.3 20.2 14.3 21.4 15.1 21.4L15.1 21.4z" data-fill-palette-color="accent"></path></g></g><g fill="#ff4136" data-fill-palette-color="accent"><g fill="#ff4136" data-fill-palette-color="accent"><path fill="#000000" d="M31.5 21.9c1.8-0.3 3.5-0.6 5.3-0.9 0.8-0.1 0.5-1.3-0.3-1.2-1.8 0.3-3.5 0.6-5.3 0.9C30.4 20.8 30.7 22 31.5 21.9L31.5 21.9z" data-fill-palette-color="accent"></path></g></g><g fill="#ff4136" data-fill-palette-color="accent"><g fill="#ff4136" data-fill-palette-color="accent"><path fill="#000000" d="M26.2 20.7c0.4-0.3 1-0.2 1.5-0.2 0.7 0 1.3 0 2 0 0.8 0 0.8-1.3 0-1.3-0.7 0-1.5 0-2.2 0-0.6 0-1.3-0.1-1.8 0.3C24.9 20.1 25.6 21.1 26.2 20.7L26.2 20.7z" data-fill-palette-color="accent"></path></g></g></g></svg></g></svg></g><g><rect width="120.76336924509533" height="2.3976516026008934" y="71.41463067716494" x="239.683098726607" fill="#000000" data-fill-palette-color="accent"></rect><rect width="120.76336924509533" height="2.3976516026008934" y="71.41463067716494" x="35.07353202829759" fill="#000000" data-fill-palette-color="accent"></rect><rect width="120.76336924509533" height="2.3976516026008934" y="66.61932747196315" x="239.683098726607" fill="#000000" data-fill-palette-color="accent"></rect><rect width="120.76336924509533" height="2.3976516026008934" y="66.61932747196315" x="35.07353202829759" fill="#000000" data-fill-palette-color="accent"></rect></g></svg></g></svg></g></svg></g><defs></defs></svg><rect width="395.52" height="247.2" fill="none" stroke="none" visibility="hidden"></rect></g></svg></g></svg>